<svg width="168" height="138" viewBox="0 0 168 138" fill="none" xmlns="http://www.w3.org/2000/svg">
<path d="M137.5 57.5C137.5 88.9721 111.541 114.5 79.5 114.5C47.4593 114.5 21.5 88.9721 21.5 57.5C21.5 26.0279 47.4593 0.5 79.5 0.5C111.541 0.5 137.5 26.0279 137.5 57.5Z" fill="#D02B2B" stroke="black"/>
<path d="M108.415 85.8049H106.761V79.1959H108.415C115.382 79.1959 120.063 66.3796 120.063 54.408C120.063 50.32 118.085 47.6783 115.024 47.6783C111.577 47.6783 108.221 49.3282 108.187 49.3433L105.335 43.4207C105.525 43.3245 110.033 41.0731 115.024 41.0731C121.678 41.0731 126.508 46.6809 126.508 54.4118C126.508 69.6285 120.167 85.8049 108.415 85.8049Z" fill="#FEFDEF"/>
<path d="M107.914 28.5734V91.7255C107.914 96.8109 103.874 100.935 98.8922 100.935H55.0687C50.0868 100.935 46.0469 96.8109 46.0469 91.7255V31.5809" fill="#FFE000"/>
<path d="M100.18 14.7597C96.7328 14.7597 93.6609 16.387 91.653 18.9269C90.1105 17.1959 87.7997 16.074 85.3576 16.074C83.6767 16.074 82.2691 16.634 80.9631 17.5146C78.8923 14.1469 75.3605 12.1274 71.1784 12.1274C66.4255 12.1274 62.2156 14.7993 60.3832 18.9533C58.6431 16.3926 55.7467 14.7126 52.4623 14.7126C47.1386 14.7126 42.8235 19.1173 42.8235 24.5516C42.8235 29.9858 47.1386 34.3906 52.4623 34.3906C55.9997 34.3906 59.0827 32.4409 60.7582 29.5427C62.7402 33.2686 66.6065 35.7972 71.0509 35.7972C74.834 35.7972 78.0593 34.7036 80.2002 31.862C80.2002 46.992 77.6233 48.9662 77.6233 54.2288C77.6233 58.8862 80.7931 62.1219 85.3558 62.1219C89.9184 62.1219 93.0883 58.8862 93.0883 54.2288C93.0883 49.0378 90.5834 47.0372 90.5151 31.2096C92.3604 34.7281 95.9939 37.1247 100.18 37.1247C106.229 37.1247 111.136 32.1166 111.136 25.9413C111.136 19.766 106.229 14.7597 100.18 14.7597Z" fill="#FEFDEF"/>
<path d="M127.153 54.4117C127.153 46.3018 122.051 40.415 115.024 40.415C112.883 40.415 110.834 40.8185 109.201 41.2767V33.3704C110.81 31.3377 111.778 28.7545 111.778 25.9431C111.778 19.4133 106.575 14.1016 100.178 14.1016C96.8972 14.1016 93.8178 15.4988 91.6178 17.9576C89.935 16.3567 87.6444 15.4177 85.3557 15.4177C83.9001 15.4177 82.5202 15.8118 81.1533 16.6207C78.8941 13.3398 75.2939 11.4712 71.1764 11.4712C66.5676 11.4712 62.3966 13.8961 60.2667 17.7313C58.3235 15.414 55.475 14.0582 52.4585 14.0582C46.7894 14.0582 42.175 18.7665 42.175 24.5553C42.175 27.2121 43.1559 29.7369 44.7538 31.5866V91.7256C44.7538 97.5294 49.3792 102.251 55.0631 102.251H98.8903C104.576 102.251 109.201 97.5294 109.201 91.7256V86.429C120.865 85.7294 127.153 69.6095 127.153 54.4117ZM109.201 49.6166C110.343 49.149 112.663 48.3382 115.024 48.3382C117.693 48.3382 119.418 50.7216 119.418 54.4098C119.418 65.35 115.259 77.4592 109.201 78.4435V49.6166ZM52.4641 15.3725C55.4086 15.3725 58.172 16.8508 59.8567 19.3303C59.9897 19.5226 60.2039 19.6207 60.4459 19.6113C60.6768 19.5886 60.8782 19.4435 60.9742 19.2266C62.6995 15.3159 66.7062 12.7873 71.1801 12.7873C75.0667 12.7873 78.4342 14.639 80.4181 17.8652C80.5105 18.0161 80.6582 18.1198 80.8282 18.1594C81 18.1971 81.1755 18.1631 81.3195 18.0651C82.6643 17.1562 83.9481 16.7339 85.3576 16.7339C87.5299 16.7339 89.7059 17.72 91.1763 19.3699C91.3038 19.5113 91.494 19.5981 91.6732 19.5849C91.8616 19.5792 92.0371 19.4906 92.1553 19.3397C94.1282 16.847 97.0523 15.4158 100.18 15.4158C105.865 15.4158 110.491 20.1373 110.491 25.9412C110.491 31.745 105.865 36.4665 100.18 36.4665C96.3689 36.4665 92.885 34.3321 91.0858 30.8984C90.9454 30.6306 90.648 30.4949 90.358 30.5703C90.0698 30.6438 89.8703 30.9078 89.8722 31.2095C89.9165 41.3144 90.9454 45.8247 91.6972 49.1188C92.1147 50.9535 92.4454 52.4016 92.4454 54.2269C92.4454 58.4864 89.5304 61.4638 85.3557 61.4638C81.181 61.4638 78.2661 58.4883 78.2661 54.2269C78.2661 52.3526 78.6134 50.8913 79.0493 49.0434C79.8067 45.8417 80.8448 41.4558 80.8448 31.86C80.8448 31.5791 80.6675 31.3283 80.407 31.2359C80.3387 31.2133 80.2685 31.202 80.2001 31.202C80.0043 31.202 79.814 31.2925 79.6903 31.4584C77.8264 33.9342 75.002 35.1372 71.0527 35.1372C66.9925 35.1372 63.2648 32.8707 61.3271 29.2278C61.2162 29.0204 61.0056 28.8865 60.771 28.8827C60.5327 28.8657 60.3222 29.0034 60.2058 29.207C58.5913 31.9977 55.6247 33.7324 52.4641 33.7324C47.5043 33.7324 43.4681 29.6124 43.4681 24.5496C43.4681 19.4868 47.5024 15.3725 52.4641 15.3725ZM91.1264 60.6435C92.7649 59.1256 93.7366 56.8931 93.7366 54.2288C93.7366 52.2508 93.3911 50.7386 92.9533 48.8228C92.6227 47.3728 92.2385 45.6776 91.9097 43.3565C92.6375 42.3401 93.792 41.7311 95.0241 41.7311C97.1558 41.7311 98.8903 43.5017 98.8903 45.6776V79.8841C98.8903 82.0601 97.1558 83.8306 95.0241 83.8306C92.8924 83.8306 91.1578 82.0601 91.1578 79.8841V60.8076C91.1578 60.7491 91.1394 60.6963 91.1264 60.6435ZM98.8922 99.6205H55.0687C50.8034 99.6205 47.3362 96.0794 47.3362 91.7275H84.07C84.4266 91.7275 84.7147 91.4333 84.7147 91.0694C84.7147 90.7055 84.4266 90.4113 84.07 90.4113H47.3362V33.64C48.8472 34.5319 50.5965 35.0523 52.4641 35.0523C55.7263 35.0523 58.8074 33.4364 60.7341 30.7777C63.008 34.3057 66.8724 36.4571 71.0545 36.4571C74.6363 36.4571 77.4847 35.4842 79.5462 33.5646C79.5056 36.5156 79.3596 38.9121 79.1564 40.9146C78.4785 40.5903 77.7415 40.4168 76.9804 40.4168C74.1375 40.4168 71.8248 42.7776 71.8248 45.6795V71.3348C71.8248 71.6987 72.113 71.9929 72.4695 71.9929C72.826 71.9929 73.1142 71.6987 73.1142 71.3348V45.6776C73.1142 43.5017 74.8487 41.7311 76.9804 41.7311C77.7027 41.7311 78.3935 41.9423 78.9994 42.3251C78.6466 45.1516 78.1866 47.1031 77.7987 48.7379C77.3406 50.6726 76.9804 52.1999 76.9804 54.2307C76.9804 57.5191 78.4545 60.1495 80.8466 61.5863V79.886C80.8466 82.0619 79.1121 83.8325 76.9804 83.8325C74.8487 83.8325 73.1142 82.0619 73.1142 79.886V73.9652C73.1142 73.6013 72.826 73.3072 72.4695 73.3072C72.113 73.3072 71.8248 73.6013 71.8248 73.9652V79.886C71.8248 82.7879 74.1375 85.1486 76.9804 85.1486C79.8233 85.1486 82.136 82.7879 82.136 79.886V62.2124C83.1095 62.58 84.1901 62.7818 85.3576 62.7818C87.0699 62.7818 88.5957 62.35 89.8685 61.5863V79.886C89.8685 82.7879 92.1812 85.1486 95.0241 85.1486C97.8669 85.1486 100.18 82.7879 100.18 79.886V45.6776C100.18 42.7757 97.8669 40.415 95.0241 40.415C93.7901 40.415 92.6171 40.8694 91.6954 41.667C91.4497 39.4873 91.2576 36.8191 91.1892 33.4251C93.3671 36.1573 96.6496 37.7846 100.18 37.7846C102.563 37.7846 104.779 37.0454 106.625 35.7821V91.7275C106.625 96.0794 103.156 99.6205 98.8922 99.6205ZM109.201 85.1128V79.7747C114.88 78.9583 120.708 69.4304 120.708 54.4098C120.708 49.9221 118.476 47.0221 115.024 47.0221C112.754 47.0221 110.544 47.6971 109.201 48.2062V42.6475C110.799 42.1742 112.863 41.7311 115.024 41.7311C121.304 41.7311 125.863 47.0654 125.863 54.4117C125.863 68.9609 120.03 84.3944 109.201 85.1128Z" fill="black"/>
<path d="M91.8025 90.4095H87.9363C87.5798 90.4095 87.2916 90.7037 87.2916 91.0676C87.2916 91.4315 87.5798 91.7257 87.9363 91.7257H91.8025C92.159 91.7257 92.4472 91.4315 92.4472 91.0676C92.4472 90.7055 92.1572 90.4095 91.8025 90.4095ZM96.9581 90.4095H95.6688C95.3122 90.4095 95.0241 90.7037 95.0241 91.0676C95.0241 91.4315 95.3122 91.7257 95.6688 91.7257H96.9581C97.3146 91.7257 97.6028 91.4315 97.6028 91.0676C97.6028 90.7055 97.3128 90.4095 96.9581 90.4095ZM58.9349 40.415C56.092 40.415 53.7793 42.7758 53.7793 45.6777V51.5985C53.7793 51.9624 54.0675 52.2565 54.424 52.2565C54.7805 52.2565 55.0687 51.9624 55.0687 51.5985V45.6777C55.0687 43.5017 56.8032 41.7312 58.9349 41.7312C61.0666 41.7312 62.8011 43.5017 62.8011 45.6777V79.8842C62.8011 82.0601 61.0666 83.8307 58.9349 83.8307C56.8032 83.8307 55.0687 82.0601 55.0687 79.8842V63.4381C55.0687 63.0741 54.7805 62.78 54.424 62.78C54.0675 62.78 53.7793 63.0741 53.7793 63.4381V79.8842C53.7793 82.7861 56.092 85.1468 58.9349 85.1468C61.7778 85.1468 64.0905 82.7861 64.0905 79.8842V45.6777C64.0905 42.7758 61.7796 40.415 58.9349 40.415Z" fill="black"/>
<path d="M54.5 61C54.7765 61 55 60.7392 55 60.4165V58.0843C55 57.7616 54.7765 57.5008 54.5 57.5008C54.2235 57.5008 54 57.7616 54 58.0843V60.4165C54 60.7392 54.2249 61 54.5 61ZM54.5 56.3339C54.7765 56.3339 55 56.0731 55 55.7504V54.5835C55 54.2608 54.7765 54 54.5 54C54.2235 54 54 54.2608 54 54.5835V55.7504C54 56.0731 54.2249 56.3339 54.5 56.3339Z" fill="black"/>
<mask id="path-8-outside-1_102_181" maskUnits="userSpaceOnUse" x="-0.0551122" y="118" width="169.09" height="20.8138" fill="black">
<rect fill="white" x="-0.0551122" y="118" width="169.09" height="20.8138"/>
<path d="M1.58989 119.496L7.54182 119.524C10.0058 119.536 11.9076 120.025 13.2471 120.992C14.6027 121.958 15.2765 123.306 15.2686 125.034C15.2636 126.122 14.9232 127.072 14.2475 127.885C13.5878 128.697 12.6809 129.325 11.5268 129.768C10.3888 130.194 9.12387 130.404 7.73189 130.397L6.7239 130.392L6.698 136.032L1.51406 136.007L1.58989 119.496ZM7.77121 127.061C8.6192 127.066 9.276 126.893 9.74161 126.543C10.2072 126.193 10.4416 125.682 10.4447 125.01C10.4477 124.338 10.2181 123.833 9.75561 123.495C9.30916 123.157 8.65394 122.986 7.78994 122.981L6.75796 122.977L6.73944 127.008C7.05929 127.042 7.40321 127.06 7.77121 127.061ZM17.1756 119.571L28.7675 119.626L28.7508 123.274L22.9908 123.247L22.977 126.247L28.233 126.272L28.2191 129.296L22.9632 129.271L22.9485 132.463L28.7084 132.49L28.6917 136.138L17.0998 136.082L17.1756 119.571ZM31.4489 119.639L38.6248 119.674C40.3528 119.682 41.8792 120.034 43.204 120.728C44.5449 121.423 45.5804 122.387 46.3108 123.623C47.0571 124.859 47.4266 126.268 47.4194 127.852C47.4117 129.516 47.037 130.979 46.2952 132.239C45.5694 133.5 44.5329 134.479 43.1857 135.176C41.8545 135.858 40.309 136.194 38.549 136.186L31.3731 136.151L31.4489 119.639ZM38.3288 131.865C39.5288 131.87 40.4425 131.499 41.07 130.75C41.7135 129.985 42.0381 128.995 42.0436 127.779C42.0489 126.627 41.7411 125.713 41.1202 125.038C40.5154 124.347 39.597 123.999 38.365 123.993L36.733 123.985L36.6969 131.857L38.3288 131.865ZM49.7768 119.728L55.3208 119.754L55.2449 136.266L49.701 136.24L49.7768 119.728ZM69.0879 136.621C68.0959 136.616 67.176 136.596 66.3281 136.56C65.4803 136.524 64.3206 136.446 62.8492 136.327L62.9251 119.791L71.181 119.831C72.349 119.836 73.3962 120.009 74.3227 120.35C75.2652 120.674 75.999 121.142 76.5242 121.753C77.0495 122.363 77.3102 123.068 77.3065 123.868C77.302 124.86 77.0824 125.643 76.6477 126.217C76.2132 126.775 75.5554 127.164 74.6744 127.384C76.9127 127.746 78.0266 129.072 78.0161 131.36C78.0089 132.944 77.275 134.22 75.8145 135.189C74.3701 136.158 72.1278 136.636 69.0879 136.621ZM70.143 126.354C70.767 126.357 71.2797 126.207 71.6811 125.905C72.0985 125.603 72.3083 125.212 72.3105 124.732C72.3157 123.596 71.6144 123.025 70.2064 123.018L68.2624 123.009L68.2471 126.345L70.143 126.354ZM70.0172 132.857C70.8972 132.862 71.5699 132.705 72.0354 132.387C72.5169 132.053 72.759 131.591 72.7617 130.999C72.7647 130.359 72.5509 129.869 72.1205 129.531C71.6901 129.177 71.0749 128.998 70.2749 128.995L68.2109 128.985L68.1935 132.777C68.9133 132.828 69.5212 132.855 70.0172 132.857ZM80.2218 119.874L91.8137 119.93L91.7969 123.578L86.037 123.55L86.0232 126.55L91.2791 126.576L91.2652 129.6L86.0093 129.574L85.9946 132.766L91.7546 132.794L91.7378 136.442L80.146 136.386L80.2218 119.874ZM100.658 136.773C99.6658 136.768 98.7459 136.748 97.8981 136.712C97.0502 136.676 95.8906 136.598 94.4191 136.479L94.4951 119.943L102.751 119.983C103.919 119.988 104.966 120.162 105.893 120.502C106.835 120.827 107.569 121.294 108.094 121.905C108.619 122.515 108.88 123.22 108.876 124.02C108.872 125.012 108.652 125.795 108.218 126.369C107.783 126.927 107.125 127.316 106.244 127.536C108.483 127.899 109.597 129.224 109.586 131.512C109.579 133.096 108.845 134.372 107.384 135.341C105.94 136.31 103.698 136.788 100.658 136.773ZM101.713 126.506C102.337 126.509 102.85 126.359 103.251 126.057C103.668 125.755 103.878 125.364 103.88 124.884C103.886 123.748 103.184 123.177 101.776 123.17L99.8323 123.161L99.817 126.497L101.713 126.506ZM101.587 133.009C102.467 133.014 103.14 132.857 103.605 132.539C104.087 132.205 104.329 131.743 104.332 131.151C104.335 130.511 104.121 130.022 103.69 129.683C103.26 129.329 102.645 129.15 101.845 129.147L99.7809 129.137L99.7635 132.929C100.483 132.98 101.091 133.007 101.587 133.009ZM111.792 120.026L117.336 120.053L117.26 136.565L111.716 136.538L111.792 120.026ZM120.464 120.068L127.639 120.103C129.367 120.111 130.894 120.462 132.219 121.157C133.559 121.851 134.595 122.816 135.325 124.052C136.072 125.287 136.441 126.697 136.434 128.281C136.426 129.945 136.052 131.407 135.31 132.668C134.584 133.928 133.547 134.907 132.2 135.605C130.869 136.286 129.324 136.623 127.564 136.615L120.388 136.58L120.464 120.068ZM127.343 132.293C128.543 132.299 129.457 131.928 130.085 131.179C130.728 130.414 131.053 129.423 131.058 128.207C131.064 127.055 130.756 126.142 130.135 125.467C129.53 124.776 128.612 124.427 127.38 124.422L125.748 124.414L125.711 132.286L127.343 132.293ZM141.63 120.17L148.926 120.205L153.626 136.74L147.986 136.713L147.377 133.542L143.105 133.521L142.394 136.686L136.994 136.66L141.63 120.17ZM146.814 130.587L145.288 123.356L143.622 130.572L146.814 130.587ZM160.326 137.156C158.07 137.145 156.168 136.72 154.619 135.881L155.836 132.167C157.482 132.767 158.952 133.07 160.248 133.076C160.952 133.079 161.465 133.002 161.785 132.843C162.122 132.669 162.291 132.414 162.293 132.078C162.294 131.854 162.207 131.661 162.032 131.501C161.856 131.324 161.505 131.13 160.978 130.919C160.451 130.709 159.66 130.449 158.606 130.14C157.312 129.75 156.306 129.121 155.59 128.253C154.874 127.37 154.519 126.36 154.524 125.224C154.532 123.464 155.114 122.139 156.271 121.249C157.443 120.342 159.013 119.894 160.981 119.903C162.005 119.908 163.012 120.025 164.003 120.254C164.994 120.467 165.873 120.783 166.639 121.203L165.326 124.82C164.432 124.512 163.649 124.292 162.977 124.161C162.322 124.014 161.682 123.939 161.058 123.936C160.002 123.931 159.473 124.216 159.47 124.792C159.469 125.08 159.636 125.329 159.971 125.539C160.322 125.732 161.033 125.984 162.103 126.293C163.781 126.749 165.05 127.443 165.91 128.375C166.77 129.291 167.197 130.389 167.191 131.669C167.183 133.445 166.6 134.811 165.444 135.765C164.288 136.703 162.582 137.167 160.326 137.156Z"/>
</mask>
<path d="M1.58989 119.496L7.54182 119.524C10.0058 119.536 11.9076 120.025 13.2471 120.992C14.6027 121.958 15.2765 123.306 15.2686 125.034C15.2636 126.122 14.9232 127.072 14.2475 127.885C13.5878 128.697 12.6809 129.325 11.5268 129.768C10.3888 130.194 9.12387 130.404 7.73189 130.397L6.7239 130.392L6.698 136.032L1.51406 136.007L1.58989 119.496ZM7.77121 127.061C8.6192 127.066 9.276 126.893 9.74161 126.543C10.2072 126.193 10.4416 125.682 10.4447 125.01C10.4477 124.338 10.2181 123.833 9.75561 123.495C9.30916 123.157 8.65394 122.986 7.78994 122.981L6.75796 122.977L6.73944 127.008C7.05929 127.042 7.40321 127.06 7.77121 127.061ZM17.1756 119.571L28.7675 119.626L28.7508 123.274L22.9908 123.247L22.977 126.247L28.233 126.272L28.2191 129.296L22.9632 129.271L22.9485 132.463L28.7084 132.49L28.6917 136.138L17.0998 136.082L17.1756 119.571ZM31.4489 119.639L38.6248 119.674C40.3528 119.682 41.8792 120.034 43.204 120.728C44.5449 121.423 45.5804 122.387 46.3108 123.623C47.0571 124.859 47.4266 126.268 47.4194 127.852C47.4117 129.516 47.037 130.979 46.2952 132.239C45.5694 133.5 44.5329 134.479 43.1857 135.176C41.8545 135.858 40.309 136.194 38.549 136.186L31.3731 136.151L31.4489 119.639ZM38.3288 131.865C39.5288 131.87 40.4425 131.499 41.07 130.75C41.7135 129.985 42.0381 128.995 42.0436 127.779C42.0489 126.627 41.7411 125.713 41.1202 125.038C40.5154 124.347 39.597 123.999 38.365 123.993L36.733 123.985L36.6969 131.857L38.3288 131.865ZM49.7768 119.728L55.3208 119.754L55.2449 136.266L49.701 136.24L49.7768 119.728ZM69.0879 136.621C68.0959 136.616 67.176 136.596 66.3281 136.56C65.4803 136.524 64.3206 136.446 62.8492 136.327L62.9251 119.791L71.181 119.831C72.349 119.836 73.3962 120.009 74.3227 120.35C75.2652 120.674 75.999 121.142 76.5242 121.753C77.0495 122.363 77.3102 123.068 77.3065 123.868C77.302 124.86 77.0824 125.643 76.6477 126.217C76.2132 126.775 75.5554 127.164 74.6744 127.384C76.9127 127.746 78.0266 129.072 78.0161 131.36C78.0089 132.944 77.275 134.22 75.8145 135.189C74.3701 136.158 72.1278 136.636 69.0879 136.621ZM70.143 126.354C70.767 126.357 71.2797 126.207 71.6811 125.905C72.0985 125.603 72.3083 125.212 72.3105 124.732C72.3157 123.596 71.6144 123.025 70.2064 123.018L68.2624 123.009L68.2471 126.345L70.143 126.354ZM70.0172 132.857C70.8972 132.862 71.5699 132.705 72.0354 132.387C72.5169 132.053 72.759 131.591 72.7617 130.999C72.7647 130.359 72.5509 129.869 72.1205 129.531C71.6901 129.177 71.0749 128.998 70.2749 128.995L68.2109 128.985L68.1935 132.777C68.9133 132.828 69.5212 132.855 70.0172 132.857ZM80.2218 119.874L91.8137 119.93L91.7969 123.578L86.037 123.55L86.0232 126.55L91.2791 126.576L91.2652 129.6L86.0093 129.574L85.9946 132.766L91.7546 132.794L91.7378 136.442L80.146 136.386L80.2218 119.874ZM100.658 136.773C99.6658 136.768 98.7459 136.748 97.8981 136.712C97.0502 136.676 95.8906 136.598 94.4191 136.479L94.4951 119.943L102.751 119.983C103.919 119.988 104.966 120.162 105.893 120.502C106.835 120.827 107.569 121.294 108.094 121.905C108.619 122.515 108.88 123.22 108.876 124.02C108.872 125.012 108.652 125.795 108.218 126.369C107.783 126.927 107.125 127.316 106.244 127.536C108.483 127.899 109.597 129.224 109.586 131.512C109.579 133.096 108.845 134.372 107.384 135.341C105.94 136.31 103.698 136.788 100.658 136.773ZM101.713 126.506C102.337 126.509 102.85 126.359 103.251 126.057C103.668 125.755 103.878 125.364 103.88 124.884C103.886 123.748 103.184 123.177 101.776 123.17L99.8323 123.161L99.817 126.497L101.713 126.506ZM101.587 133.009C102.467 133.014 103.14 132.857 103.605 132.539C104.087 132.205 104.329 131.743 104.332 131.151C104.335 130.511 104.121 130.022 103.69 129.683C103.26 129.329 102.645 129.15 101.845 129.147L99.7809 129.137L99.7635 132.929C100.483 132.98 101.091 133.007 101.587 133.009ZM111.792 120.026L117.336 120.053L117.26 136.565L111.716 136.538L111.792 120.026ZM120.464 120.068L127.639 120.103C129.367 120.111 130.894 120.462 132.219 121.157C133.559 121.851 134.595 122.816 135.325 124.052C136.072 125.287 136.441 126.697 136.434 128.281C136.426 129.945 136.052 131.407 135.31 132.668C134.584 133.928 133.547 134.907 132.2 135.605C130.869 136.286 129.324 136.623 127.564 136.615L120.388 136.58L120.464 120.068ZM127.343 132.293C128.543 132.299 129.457 131.928 130.085 131.179C130.728 130.414 131.053 129.423 131.058 128.207C131.064 127.055 130.756 126.142 130.135 125.467C129.53 124.776 128.612 124.427 127.38 124.422L125.748 124.414L125.711 132.286L127.343 132.293ZM141.63 120.17L148.926 120.205L153.626 136.74L147.986 136.713L147.377 133.542L143.105 133.521L142.394 136.686L136.994 136.66L141.63 120.17ZM146.814 130.587L145.288 123.356L143.622 130.572L146.814 130.587ZM160.326 137.156C158.07 137.145 156.168 136.72 154.619 135.881L155.836 132.167C157.482 132.767 158.952 133.07 160.248 133.076C160.952 133.079 161.465 133.002 161.785 132.843C162.122 132.669 162.291 132.414 162.293 132.078C162.294 131.854 162.207 131.661 162.032 131.501C161.856 131.324 161.505 131.13 160.978 130.919C160.451 130.709 159.66 130.449 158.606 130.14C157.312 129.75 156.306 129.121 155.59 128.253C154.874 127.37 154.519 126.36 154.524 125.224C154.532 123.464 155.114 122.139 156.271 121.249C157.443 120.342 159.013 119.894 160.981 119.903C162.005 119.908 163.012 120.025 164.003 120.254C164.994 120.467 165.873 120.783 166.639 121.203L165.326 124.82C164.432 124.512 163.649 124.292 162.977 124.161C162.322 124.014 161.682 123.939 161.058 123.936C160.002 123.931 159.473 124.216 159.47 124.792C159.469 125.08 159.636 125.329 159.971 125.539C160.322 125.732 161.033 125.984 162.103 126.293C163.781 126.749 165.05 127.443 165.91 128.375C166.77 129.291 167.197 130.389 167.191 131.669C167.183 133.445 166.6 134.811 165.444 135.765C164.288 136.703 162.582 137.167 160.326 137.156Z" fill="#D02B2B"/>
<path d="M1.58989 119.496L1.59448 118.496L0.594494 118.491L0.589901 119.491L1.58989 119.496ZM13.2471 120.992L12.6622 121.803L12.6667 121.806L13.2471 120.992ZM14.2475 127.885L13.4784 127.245L13.471 127.254L14.2475 127.885ZM11.5268 129.768L11.878 130.704L11.885 130.701L11.5268 129.768ZM6.7239 130.392L6.72849 129.392L5.7285 129.388L5.72391 130.388L6.7239 130.392ZM6.698 136.032L6.6934 137.032L7.69339 137.037L7.69798 136.037L6.698 136.032ZM1.51406 136.007L0.514067 136.003L0.509474 137.003L1.50946 137.007L1.51406 136.007ZM9.74161 126.543L9.14089 125.743L9.14089 125.743L9.74161 126.543ZM9.75561 123.495L9.15194 124.292L9.15862 124.297L9.16539 124.302L9.75561 123.495ZM6.75796 122.977L6.76255 121.977L5.76256 121.972L5.75797 122.972L6.75796 122.977ZM6.73944 127.008L5.73945 127.004L5.73529 127.909L6.63537 128.003L6.73944 127.008ZM1.5853 120.496L7.53723 120.524L7.54641 118.524L1.59448 118.496L1.5853 120.496ZM7.53723 120.524C9.88988 120.536 11.5563 121.005 12.6622 121.803L13.8321 120.181C12.2589 119.046 10.1217 118.537 7.54641 118.524L7.53723 120.524ZM12.6667 121.806C13.746 122.575 14.2751 123.611 14.2686 125.029L16.2686 125.038C16.2779 123 15.4594 121.341 13.8276 120.178L12.6667 121.806ZM14.2686 125.029C14.2646 125.892 14.0013 126.616 13.4785 127.245L15.0165 128.524C15.8451 127.527 16.2626 126.351 16.2686 125.038L14.2686 125.029ZM13.471 127.254C12.9402 127.908 12.1888 128.443 11.1687 128.834L11.885 130.701C13.1729 130.208 14.2353 129.487 15.024 128.515L13.471 127.254ZM11.1757 128.831C10.1667 129.209 9.02444 129.404 7.73648 129.397L7.72729 131.397C9.2233 131.404 10.611 131.179 11.878 130.704L11.1757 128.831ZM7.73648 129.397L6.72849 129.392L6.71931 131.392L7.72729 131.397L7.73648 129.397ZM5.72391 130.388L5.69801 136.028L7.69798 136.037L7.72389 130.397L5.72391 130.388ZM6.70259 135.032L1.51865 135.007L1.50946 137.007L6.6934 137.032L6.70259 135.032ZM2.51404 136.012L2.58988 119.5L0.589901 119.491L0.514067 136.003L2.51404 136.012ZM7.76661 128.061C8.73703 128.066 9.63863 127.871 10.3423 127.343L9.14089 125.743C8.91336 125.914 8.50137 126.065 7.7758 126.061L7.76661 128.061ZM10.3423 127.343C11.0987 126.774 11.4404 125.945 11.4446 125.015L9.44467 125.005C9.44277 125.419 9.31573 125.612 9.14089 125.743L10.3423 127.343ZM11.4446 125.015C11.4489 124.086 11.1143 123.25 10.3458 122.688L9.16539 124.302C9.32186 124.417 9.44657 124.591 9.44467 125.005L11.4446 125.015ZM10.3593 122.698C9.66927 122.175 8.7645 121.986 7.79454 121.981L7.78535 123.981C8.54337 123.985 8.94904 124.138 9.15194 124.292L10.3593 122.698ZM7.79454 121.981L6.76255 121.977L6.75336 123.977L7.78535 123.981L7.79454 121.981ZM5.75797 122.972L5.73945 127.004L7.73943 127.013L7.75795 122.981L5.75797 122.972ZM6.63537 128.003C6.99257 128.04 7.37002 128.06 7.76661 128.061L7.7758 126.061C7.4364 126.06 7.12601 126.044 6.84351 126.014L6.63537 128.003ZM17.1756 119.571L17.1802 118.571L16.1803 118.566L16.1757 119.566L17.1756 119.571ZM28.7675 119.626L29.7675 119.631L29.7721 118.631L28.7721 118.626L28.7675 119.626ZM28.7508 123.274L28.7462 124.274L29.7462 124.279L29.7507 123.279L28.7508 123.274ZM22.9908 123.247L22.9954 122.247L21.9954 122.242L21.9908 123.242L22.9908 123.247ZM22.977 126.247L21.9771 126.242L21.9725 127.242L22.9725 127.247L22.977 126.247ZM28.233 126.272L29.233 126.277L29.2376 125.277L28.2376 125.272L28.233 126.272ZM28.2191 129.296L28.2145 130.296L29.2145 130.301L29.2191 129.301L28.2191 129.296ZM22.9632 129.271L22.9678 128.271L21.9678 128.266L21.9632 129.266L22.9632 129.271ZM22.9485 132.463L21.9485 132.458L21.9439 133.458L22.9439 133.463L22.9485 132.463ZM28.7084 132.49L29.7084 132.495L29.713 131.495L28.713 131.49L28.7084 132.49ZM28.6917 136.138L28.6871 137.138L29.6871 137.143L29.6917 136.143L28.6917 136.138ZM17.0998 136.082L16.0998 136.078L16.0952 137.078L17.0952 137.082L17.0998 136.082ZM17.1711 120.571L28.7629 120.626L28.7721 118.626L17.1802 118.571L17.1711 120.571ZM27.7675 119.622L27.7508 123.27L29.7507 123.279L29.7675 119.631L27.7675 119.622ZM28.7554 122.274L22.9954 122.247L22.9862 124.247L28.7462 124.274L28.7554 122.274ZM21.9908 123.242L21.9771 126.242L23.977 126.251L23.9908 123.252L21.9908 123.242ZM22.9725 127.247L28.2284 127.272L28.2376 125.272L22.9816 125.247L22.9725 127.247ZM27.233 126.267L27.2191 129.291L29.2191 129.301L29.233 126.277L27.233 126.267ZM28.2237 128.296L22.9678 128.271L22.9586 130.271L28.2145 130.296L28.2237 128.296ZM21.9632 129.266L21.9485 132.458L23.9485 132.467L23.9631 129.275L21.9632 129.266ZM22.9439 133.463L28.7038 133.49L28.713 131.49L22.9531 131.463L22.9439 133.463ZM27.7084 132.486L27.6917 136.133L29.6917 136.143L29.7084 132.495L27.7084 132.486ZM28.6963 135.138L17.1044 135.082L17.0952 137.082L28.6871 137.138L28.6963 135.138ZM18.0998 136.087L18.1756 119.575L16.1757 119.566L16.0998 136.078L18.0998 136.087ZM31.4489 119.639L31.4535 118.639L30.4535 118.635L30.4489 119.635L31.4489 119.639ZM43.204 120.728L42.74 121.614L42.7443 121.616L43.204 120.728ZM46.3108 123.623L45.4499 124.132L45.4548 124.14L46.3108 123.623ZM46.2952 132.239L45.4333 131.732L45.4286 131.74L46.2952 132.239ZM43.1857 135.176L43.6416 136.066L43.6456 136.064L43.1857 135.176ZM31.3731 136.151L30.3731 136.146L30.3685 137.146L31.3685 137.151L31.3731 136.151ZM41.07 130.75L40.3047 130.106L40.3034 130.108L41.07 130.75ZM41.1202 125.038L40.3679 125.697L40.376 125.706L40.3843 125.715L41.1202 125.038ZM36.733 123.985L36.7376 122.985L35.7376 122.98L35.733 123.98L36.733 123.985ZM36.6969 131.857L35.6969 131.852L35.6923 132.852L36.6923 132.857L36.6969 131.857ZM31.4443 120.639L38.6202 120.674L38.6294 118.674L31.4535 118.639L31.4443 120.639ZM38.6202 120.674C40.2131 120.682 41.5775 121.004 42.74 121.614L43.6681 119.842C42.1809 119.063 40.4925 118.683 38.6294 118.674L38.6202 120.674ZM42.7443 121.616C43.9276 122.229 44.8202 123.066 45.45 124.132L47.1716 123.114C46.3407 121.709 45.1621 120.616 43.6638 119.84L42.7443 121.616ZM45.4548 124.14C46.097 125.203 46.4259 126.429 46.4194 127.848L48.4194 127.857C48.4274 126.108 48.0172 124.514 47.1667 123.106L45.4548 124.14ZM46.4194 127.848C46.4124 129.36 46.0737 130.644 45.4334 131.732L47.1571 132.746C48.0003 131.314 48.411 129.673 48.4194 127.857L46.4194 127.848ZM45.4286 131.74C44.8025 132.827 43.9107 133.675 42.7258 134.288L43.6456 136.064C45.1552 135.283 46.3363 134.172 47.1618 132.738L45.4286 131.74ZM42.7298 134.286C41.5643 134.883 40.1817 135.194 38.5536 135.186L38.5444 137.186C40.4362 137.195 42.1448 136.833 43.6416 136.066L42.7298 134.286ZM38.5536 135.186L31.3777 135.151L31.3685 137.151L38.5444 137.186L38.5536 135.186ZM32.3731 136.156L32.4489 119.644L30.4489 119.635L30.3731 136.146L32.3731 136.156ZM38.3243 132.865C39.7474 132.872 40.975 132.421 41.8366 131.392L40.3034 130.108C39.91 130.577 39.3103 130.869 38.3334 130.865L38.3243 132.865ZM41.8353 131.394C42.66 130.413 43.0372 129.181 43.0436 127.783L41.0437 127.774C41.0389 128.808 40.767 129.557 40.3047 130.106L41.8353 131.394ZM43.0436 127.783C43.0498 126.446 42.6887 125.266 41.8561 124.361L40.3843 125.715C40.7936 126.16 41.0481 126.807 41.0437 127.774L43.0436 127.783ZM41.8726 124.379C41.0203 123.406 39.7852 123 38.3696 122.993L38.3604 124.993C39.4088 124.998 40.0105 125.288 40.3679 125.697L41.8726 124.379ZM38.3696 122.993L36.7376 122.985L36.7284 124.985L38.3604 124.993L38.3696 122.993ZM35.733 123.98L35.6969 131.852L37.6969 131.862L37.733 123.99L35.733 123.98ZM36.6923 132.857L38.3243 132.865L38.3334 130.865L36.7015 130.857L36.6923 132.857ZM49.7768 119.728L49.7814 118.728L48.7814 118.723L48.7768 119.723L49.7768 119.728ZM55.3208 119.754L56.3208 119.759L56.3253 118.759L55.3254 118.754L55.3208 119.754ZM55.2449 136.266L55.2403 137.266L56.2403 137.271L56.2449 136.271L55.2449 136.266ZM49.701 136.24L48.701 136.235L48.6964 137.235L49.6964 137.239L49.701 136.24ZM49.7722 120.728L55.3162 120.754L55.3254 118.754L49.7814 118.728L49.7722 120.728ZM54.3208 119.75L54.2449 136.261L56.2449 136.271L56.3208 119.759L54.3208 119.75ZM55.2495 135.266L49.7056 135.24L49.6964 137.239L55.2403 137.266L55.2495 135.266ZM50.701 136.244L50.7768 119.732L48.7768 119.723L48.701 136.235L50.701 136.244ZM66.3281 136.56L66.2858 137.559L66.3281 136.56ZM62.8492 136.327L61.8492 136.322L61.8449 137.249L62.7687 137.324L62.8492 136.327ZM62.9251 119.791L62.9297 118.791L61.9297 118.786L61.9251 119.786L62.9251 119.791ZM74.3227 120.35L73.9779 121.289L73.9876 121.292L73.9973 121.295L74.3227 120.35ZM76.6477 126.217L77.4368 126.832L77.445 126.821L76.6477 126.217ZM74.6744 127.384L74.4321 126.413L74.5146 128.371L74.6744 127.384ZM75.8145 135.189L75.2615 134.356L75.2573 134.359L75.8145 135.189ZM71.6811 125.905L71.0948 125.095L71.0872 125.101L71.0797 125.106L71.6811 125.905ZM68.2624 123.009L68.267 122.009L67.267 122.004L67.2624 123.004L68.2624 123.009ZM68.2471 126.345L67.2471 126.34L67.2425 127.34L68.2425 127.345L68.2471 126.345ZM72.0354 132.387L72.5993 133.213L72.6051 133.209L72.0354 132.387ZM72.1205 129.531L71.4853 130.304L71.494 130.311L71.5029 130.318L72.1205 129.531ZM68.2109 128.985L68.2155 127.985L67.2156 127.98L67.211 128.98L68.2109 128.985ZM68.1935 132.777L67.1935 132.772L67.1892 133.707L68.1224 133.774L68.1935 132.777ZM69.0925 135.621C68.111 135.616 67.2038 135.596 66.3704 135.561L66.2858 137.559C67.1481 137.595 68.0808 137.616 69.0833 137.621L69.0925 135.621ZM66.3704 135.561C65.5413 135.525 64.3962 135.449 62.9296 135.33L62.7687 137.324C64.2451 137.443 65.4193 137.522 66.2858 137.559L66.3704 135.561ZM63.8492 136.332L63.9251 119.796L61.9251 119.786L61.8492 136.322L63.8492 136.332ZM62.9205 120.791L71.1764 120.831L71.1856 118.831L62.9297 118.791L62.9205 120.791ZM71.1764 120.831C72.2491 120.836 73.1784 120.995 73.9779 121.289L74.6674 119.411C73.6141 119.024 72.4489 118.837 71.1856 118.831L71.1764 120.831ZM73.9973 121.295C74.8117 121.576 75.3812 121.957 75.7662 122.405L77.2823 121.1C76.6169 120.327 75.7187 119.773 74.6481 119.404L73.9973 121.295ZM75.7662 122.405C76.1354 122.834 76.3091 123.306 76.3066 123.864L78.3065 123.873C78.3113 122.83 77.9635 121.892 77.2823 121.1L75.7662 122.405ZM76.3066 123.864C76.3026 124.719 76.1132 125.266 75.8505 125.613L77.445 126.821C78.0515 126.02 78.3013 125.001 78.3065 123.873L76.3066 123.864ZM75.8588 125.603C75.5964 125.939 75.1585 126.232 74.4321 126.413L74.9166 128.354C75.9522 128.096 76.83 127.611 77.4367 126.832L75.8588 125.603ZM74.5146 128.371C75.4718 128.526 76.0628 128.864 76.4231 129.293C76.7844 129.723 77.0207 130.371 77.0162 131.355L79.0161 131.365C79.0221 130.061 78.7067 128.902 77.9541 128.007C77.2004 127.11 76.1153 126.604 74.8341 126.397L74.5146 128.371ZM77.0162 131.355C77.0106 132.566 76.479 133.548 75.2615 134.356L76.3675 136.023C78.071 134.892 79.0071 133.322 79.0161 131.365L77.0162 131.355ZM75.2573 134.359C74.0622 135.161 72.0643 135.635 69.0925 135.621L69.0833 137.621C72.1914 137.636 74.6779 137.156 76.3718 136.02L75.2573 134.359ZM70.1385 127.354C70.9271 127.358 71.6679 127.167 72.2825 126.704L71.0797 125.106C70.8916 125.248 70.607 125.356 70.1476 125.354L70.1385 127.354ZM72.2674 126.715C72.9212 126.242 73.3067 125.563 73.3105 124.737L71.3105 124.727C71.3099 124.862 71.2759 124.964 71.0948 125.095L72.2674 126.715ZM73.3105 124.737C73.3141 123.951 73.0635 123.201 72.4199 122.677C71.8171 122.185 71.0233 122.022 70.211 122.018L70.2018 124.018C70.7974 124.021 71.0583 124.147 71.1569 124.227C71.2146 124.274 71.3121 124.377 71.3105 124.727L73.3105 124.737ZM70.211 122.018L68.267 122.009L68.2578 124.009L70.2018 124.018L70.211 122.018ZM67.2624 123.004L67.2471 126.34L69.2471 126.35L69.2624 123.014L67.2624 123.004ZM68.2425 127.345L70.1385 127.354L70.1476 125.354L68.2517 125.345L68.2425 127.345ZM70.0126 133.857C70.9899 133.862 71.8965 133.693 72.5993 133.213L71.4714 131.561C71.2433 131.717 70.8044 131.861 70.0218 131.857L70.0126 133.857ZM72.6051 133.209C73.3581 132.687 73.7575 131.918 73.7617 131.003L71.7618 130.994C71.7605 131.263 71.6757 131.42 71.4657 131.565L72.6051 133.209ZM73.7617 131.003C73.7658 130.114 73.454 129.307 72.738 128.745L71.5029 130.318C71.6478 130.432 71.7635 130.603 71.7618 130.994L73.7617 131.003ZM72.7557 128.759C72.0844 128.207 71.2117 127.999 70.2795 127.995L70.2703 129.995C70.9381 129.998 71.2958 130.148 71.4853 130.304L72.7557 128.759ZM70.2795 127.995L68.2155 127.985L68.2064 129.985L70.2703 129.995L70.2795 127.995ZM67.211 128.98L67.1935 132.772L69.1935 132.781L69.2109 128.989L67.211 128.98ZM68.1224 133.774C68.8554 133.826 69.4869 133.855 70.0126 133.857L70.0218 131.857C69.5554 131.855 68.9712 131.83 68.2646 131.779L68.1224 133.774ZM80.2218 119.874L80.2264 118.874L79.2264 118.87L79.2218 119.87L80.2218 119.874ZM91.8137 119.93L92.8136 119.935L92.8182 118.935L91.8182 118.93L91.8137 119.93ZM91.7969 123.578L91.7923 124.578L92.7923 124.583L92.7969 123.583L91.7969 123.578ZM86.037 123.55L86.0416 122.55L85.0416 122.546L85.037 123.546L86.037 123.55ZM86.0232 126.55L85.0232 126.546L85.0186 127.546L86.0186 127.55L86.0232 126.55ZM91.2791 126.576L92.2791 126.58L92.2837 125.58L91.2837 125.576L91.2791 126.576ZM91.2652 129.6L91.2606 130.6L92.2606 130.604L92.2652 129.604L91.2652 129.6ZM86.0093 129.574L86.0139 128.574L85.0139 128.57L85.0093 129.569L86.0093 129.574ZM85.9946 132.766L84.9947 132.761L84.9901 133.761L85.99 133.766L85.9946 132.766ZM91.7546 132.794L92.7546 132.799L92.7592 131.799L91.7592 131.794L91.7546 132.794ZM91.7378 136.442L91.7332 137.442L92.7332 137.447L92.7378 136.447L91.7378 136.442ZM80.146 136.386L79.146 136.381L79.1414 137.381L80.1414 137.386L80.146 136.386ZM80.2172 120.874L91.8091 120.93L91.8182 118.93L80.2264 118.874L80.2172 120.874ZM90.8137 119.925L90.7969 123.573L92.7969 123.583L92.8136 119.935L90.8137 119.925ZM91.8015 122.578L86.0416 122.55L86.0324 124.55L91.7923 124.578L91.8015 122.578ZM85.037 123.546L85.0232 126.546L87.0232 126.555L87.037 123.555L85.037 123.546ZM86.0186 127.55L91.2745 127.576L91.2837 125.576L86.0278 125.55L86.0186 127.55ZM90.2791 126.571L90.2653 129.595L92.2652 129.604L92.2791 126.58L90.2791 126.571ZM91.2698 128.6L86.0139 128.574L86.0047 130.574L91.2606 130.6L91.2698 128.6ZM85.0093 129.569L84.9947 132.761L86.9946 132.771L87.0093 129.579L85.0093 129.569ZM85.99 133.766L91.75 133.794L91.7592 131.794L85.9992 131.766L85.99 133.766ZM90.7546 132.789L90.7378 136.437L92.7378 136.447L92.7546 132.799L90.7546 132.789ZM91.7424 135.442L80.1505 135.386L80.1414 137.386L91.7332 137.442L91.7424 135.442ZM81.1459 136.391L81.2218 119.879L79.2218 119.87L79.146 136.381L81.1459 136.391ZM97.8981 136.712L97.8558 137.711L97.8981 136.712ZM94.4191 136.479L93.4191 136.474L93.4149 137.401L94.3387 137.476L94.4191 136.479ZM94.4951 119.943L94.4997 118.943L93.4997 118.938L93.4951 119.938L94.4951 119.943ZM105.893 120.502L105.548 121.441L105.558 121.444L105.567 121.447L105.893 120.502ZM108.218 126.369L109.007 126.984L109.015 126.973L108.218 126.369ZM106.244 127.536L106.002 126.565L106.085 128.523L106.244 127.536ZM107.384 135.341L106.831 134.508L106.827 134.511L107.384 135.341ZM103.251 126.057L102.665 125.247L102.657 125.253L102.65 125.258L103.251 126.057ZM99.8323 123.161L99.8369 122.161L98.8369 122.156L98.8323 123.156L99.8323 123.161ZM99.817 126.497L98.817 126.492L98.8124 127.492L99.8124 127.497L99.817 126.497ZM103.605 132.539L104.169 133.365L104.175 133.361L103.605 132.539ZM103.69 129.683L103.055 130.456L103.064 130.463L103.073 130.47L103.69 129.683ZM99.7809 129.137L99.7855 128.137L98.7855 128.132L98.7809 129.132L99.7809 129.137ZM99.7635 132.929L98.7635 132.924L98.7592 133.859L99.6924 133.926L99.7635 132.929ZM100.662 135.773C99.681 135.768 98.7738 135.748 97.9404 135.713L97.8558 137.711C98.7181 137.747 99.6507 137.768 100.653 137.773L100.662 135.773ZM97.9404 135.713C97.1112 135.677 95.9661 135.601 94.4996 135.482L94.3387 137.476C95.8151 137.595 96.9893 137.674 97.8558 137.711L97.9404 135.713ZM95.4191 136.484L95.495 119.948L93.4951 119.938L93.4191 136.474L95.4191 136.484ZM94.4905 120.943L102.746 120.983L102.756 118.983L94.4997 118.943L94.4905 120.943ZM102.746 120.983C103.819 120.988 104.748 121.147 105.548 121.441L106.237 119.563C105.184 119.176 104.019 118.989 102.756 118.983L102.746 120.983ZM105.567 121.447C106.382 121.728 106.951 122.109 107.336 122.557L108.852 121.253C108.187 120.479 107.289 119.925 106.218 119.556L105.567 121.447ZM107.336 122.557C107.705 122.986 107.879 123.458 107.876 124.016L109.876 124.025C109.881 122.983 109.533 122.044 108.852 121.253L107.336 122.557ZM107.876 124.016C107.873 124.871 107.683 125.418 107.42 125.765L109.015 126.973C109.621 126.172 109.871 125.153 109.876 124.025L107.876 124.016ZM107.429 125.755C107.166 126.091 106.728 126.384 106.002 126.565L106.487 128.506C107.522 128.248 108.4 127.763 109.007 126.984L107.429 125.755ZM106.085 128.523C107.042 128.678 107.633 129.017 107.993 129.445C108.354 129.875 108.591 130.523 108.586 131.507L110.586 131.517C110.592 130.213 110.277 129.054 109.524 128.159C108.77 127.262 107.685 126.756 106.404 126.549L106.085 128.523ZM108.586 131.507C108.581 132.718 108.049 133.7 106.831 134.508L107.937 136.175C109.641 135.044 110.577 133.474 110.586 131.517L108.586 131.507ZM106.827 134.511C105.632 135.313 103.634 135.787 100.662 135.773L100.653 137.773C103.761 137.788 106.248 137.308 107.942 136.172L106.827 134.511ZM101.708 127.506C102.497 127.51 103.238 127.319 103.852 126.856L102.65 125.258C102.462 125.4 102.177 125.508 101.718 125.506L101.708 127.506ZM103.837 126.868C104.491 126.395 104.877 125.715 104.88 124.889L102.88 124.88C102.88 125.014 102.846 125.116 102.665 125.247L103.837 126.868ZM104.88 124.889C104.884 124.103 104.633 123.353 103.99 122.829C103.387 122.338 102.593 122.174 101.781 122.17L101.772 124.17C102.367 124.173 102.628 124.299 102.727 124.379C102.785 124.426 102.882 124.529 102.88 124.88L104.88 124.889ZM101.781 122.17L99.8369 122.161L99.8277 124.161L101.772 124.17L101.781 122.17ZM98.8323 123.156L98.817 126.492L100.817 126.502L100.832 123.166L98.8323 123.156ZM99.8124 127.497L101.708 127.506L101.718 125.506L99.8216 125.497L99.8124 127.497ZM101.583 134.009C102.56 134.014 103.466 133.845 104.169 133.365L103.041 131.713C102.813 131.869 102.374 132.013 101.592 132.009L101.583 134.009ZM104.175 133.361C104.928 132.839 105.327 132.07 105.332 131.155L103.332 131.146C103.33 131.416 103.246 131.572 103.036 131.717L104.175 133.361ZM105.332 131.155C105.336 130.266 105.024 129.459 104.308 128.897L103.073 130.47C103.218 130.584 103.333 130.756 103.332 131.146L105.332 131.155ZM104.326 128.911C103.654 128.359 102.782 128.151 101.849 128.147L101.84 130.147C102.508 130.15 102.866 130.3 103.055 130.456L104.326 128.911ZM101.849 128.147L99.7855 128.137L99.7763 130.137L101.84 130.147L101.849 128.147ZM98.7809 129.132L98.7635 132.924L100.763 132.933L100.781 129.141L98.7809 129.132ZM99.6924 133.926C100.425 133.978 101.057 134.007 101.583 134.009L101.592 132.009C101.125 132.007 100.541 131.982 99.8346 131.931L99.6924 133.926ZM111.792 120.026L111.796 119.026L110.796 119.022L110.792 120.022L111.792 120.026ZM117.336 120.053L118.336 120.058L118.34 119.058L117.34 119.053L117.336 120.053ZM117.26 136.565L117.255 137.565L118.255 137.57L118.26 136.57L117.26 136.565ZM111.716 136.538L110.716 136.533L110.711 137.533L111.711 137.538L111.716 136.538ZM111.787 121.026L117.331 121.053L117.34 119.053L111.796 119.026L111.787 121.026ZM116.336 120.048L116.26 136.56L118.26 136.57L118.336 120.058L116.336 120.048ZM117.264 135.565L111.72 135.538L111.711 137.538L117.255 137.565L117.264 135.565ZM112.716 136.543L112.792 120.031L110.792 120.022L110.716 136.533L112.716 136.543ZM120.464 120.068L120.468 119.068L119.468 119.063L119.464 120.063L120.464 120.068ZM132.219 121.157L131.755 122.042L131.759 122.045L132.219 121.157ZM135.325 124.052L134.465 124.561L134.469 124.569L135.325 124.052ZM135.31 132.668L134.448 132.16L134.443 132.169L135.31 132.668ZM132.2 135.605L132.656 136.495L132.66 136.493L132.2 135.605ZM120.388 136.58L119.388 136.575L119.383 137.575L120.383 137.58L120.388 136.58ZM130.085 131.179L129.319 130.535L129.318 130.536L130.085 131.179ZM130.135 125.467L129.382 126.125L129.391 126.135L129.399 126.144L130.135 125.467ZM125.748 124.414L125.752 123.414L124.752 123.409L124.748 124.409L125.748 124.414ZM125.711 132.286L124.711 132.281L124.707 133.281L125.707 133.286L125.711 132.286ZM120.459 121.068L127.635 121.103L127.644 119.103L120.468 119.068L120.459 121.068ZM127.635 121.103C129.228 121.11 130.592 121.433 131.755 122.042L132.683 120.271C131.195 119.492 129.507 119.112 127.644 119.103L127.635 121.103ZM131.759 122.045C132.942 122.658 133.835 123.495 134.465 124.56L136.186 123.543C135.355 122.137 134.177 121.045 132.678 120.269L131.759 122.045ZM134.469 124.569C135.112 125.632 135.44 126.858 135.434 128.276L137.434 128.286C137.442 126.537 137.032 124.943 136.181 123.535L134.469 124.569ZM135.434 128.276C135.427 129.788 135.088 131.072 134.448 132.16L136.172 133.175C137.015 131.742 137.426 130.102 137.434 128.286L135.434 128.276ZM134.443 132.169C133.817 133.256 132.925 134.103 131.74 134.717L132.66 136.493C134.17 135.711 135.351 134.601 136.176 133.167L134.443 132.169ZM131.744 134.715C130.579 135.312 129.196 135.622 127.568 135.615L127.559 137.615C129.451 137.624 131.159 137.261 132.656 136.495L131.744 134.715ZM127.568 135.615L120.392 135.58L120.383 137.58L127.559 137.615L127.568 135.615ZM121.388 136.585L121.463 120.073L119.464 120.063L119.388 136.575L121.388 136.585ZM127.339 133.293C128.762 133.3 129.99 132.849 130.851 131.821L129.318 130.536C128.925 131.006 128.325 131.298 127.348 131.293L127.339 133.293ZM130.85 131.823C131.675 130.842 132.052 129.609 132.058 128.212L130.058 128.202C130.053 129.237 129.782 129.985 129.319 130.535L130.85 131.823ZM132.058 128.212C132.064 126.875 131.703 125.695 130.871 124.79L129.399 126.144C129.808 126.589 130.063 127.235 130.058 128.202L132.058 128.212ZM130.887 124.808C130.035 123.835 128.8 123.428 127.384 123.422L127.375 125.422C128.423 125.427 129.025 125.717 129.382 126.125L130.887 124.808ZM127.384 123.422L125.752 123.414L125.743 125.414L127.375 125.422L127.384 123.422ZM124.748 124.409L124.711 132.281L126.711 132.29L126.748 124.418L124.748 124.409ZM125.707 133.286L127.339 133.293L127.348 131.293L125.716 131.286L125.707 133.286ZM141.63 120.17L141.635 119.17L140.873 119.166L140.667 119.899L141.63 120.17ZM148.926 120.205L149.888 119.932L149.682 119.209L148.931 119.205L148.926 120.205ZM153.626 136.74L153.622 137.74L154.952 137.746L154.588 136.467L153.626 136.74ZM147.986 136.713L147.004 136.901L147.159 137.709L147.982 137.713L147.986 136.713ZM147.377 133.542L148.359 133.353L148.204 132.546L147.381 132.542L147.377 133.542ZM143.105 133.521L143.109 132.521L142.305 132.518L142.129 133.302L143.105 133.521ZM142.394 136.686L142.39 137.686L143.194 137.69L143.37 136.905L142.394 136.686ZM136.994 136.66L136.032 136.389L135.676 137.654L136.99 137.66L136.994 136.66ZM146.814 130.587L146.81 131.587L148.049 131.593L147.793 130.381L146.814 130.587ZM145.288 123.356L146.266 123.149L144.313 123.131L145.288 123.356ZM143.622 130.572L142.648 130.347L142.367 131.566L143.618 131.572L143.622 130.572ZM141.626 121.17L148.921 121.205L148.931 119.205L141.635 119.17L141.626 121.17ZM147.964 120.478L152.664 137.013L154.588 136.467L149.888 119.932L147.964 120.478ZM153.631 135.74L147.991 135.713L147.982 137.713L153.622 137.74L153.631 135.74ZM148.968 136.524L148.359 133.353L146.395 133.73L147.004 136.901L148.968 136.524ZM147.381 132.542L143.109 132.521L143.1 134.521L147.372 134.542L147.381 132.542ZM142.129 133.302L141.419 136.467L143.37 136.905L144.081 133.741L142.129 133.302ZM142.399 135.686L136.999 135.66L136.99 137.66L142.39 137.686L142.399 135.686ZM137.957 136.931L142.593 120.441L140.667 119.899L136.032 136.389L137.957 136.931ZM147.793 130.381L146.266 123.149L144.309 123.562L145.836 130.794L147.793 130.381ZM144.313 123.131L142.648 130.347L144.597 130.797L146.262 123.581L144.313 123.131ZM143.618 131.572L146.81 131.587L146.819 129.587L143.627 129.572L143.618 131.572ZM154.619 135.881L153.669 135.569L153.409 136.362L154.143 136.76L154.619 135.881ZM155.836 132.167L156.179 131.227L155.208 130.873L154.886 131.855L155.836 132.167ZM161.785 132.843L162.228 133.74L162.237 133.736L162.245 133.731L161.785 132.843ZM162.032 131.501L161.321 132.204L161.338 132.221L161.356 132.237L162.032 131.501ZM160.978 130.919L161.349 129.991L161.349 129.991L160.978 130.919ZM158.606 130.14L158.317 131.097L158.325 131.1L158.606 130.14ZM155.59 128.253L154.814 128.883L154.819 128.89L155.59 128.253ZM156.271 121.249L156.881 122.041L156.882 122.04L156.271 121.249ZM164.003 120.254L163.778 121.228L163.786 121.23L163.794 121.232L164.003 120.254ZM166.639 121.203L167.579 121.544L167.871 120.738L167.119 120.326L166.639 121.203ZM165.326 124.82L165.001 125.766L165.931 126.086L166.266 125.162L165.326 124.82ZM162.977 124.161L162.758 125.137L162.772 125.14L162.786 125.142L162.977 124.161ZM159.971 125.539L159.441 126.386L159.464 126.401L159.488 126.414L159.971 125.539ZM162.103 126.293L161.826 127.254L161.834 127.256L161.841 127.258L162.103 126.293ZM165.91 128.375L165.175 129.053L165.181 129.059L165.91 128.375ZM165.444 135.765L166.074 136.542L166.081 136.536L165.444 135.765ZM160.33 136.156C158.194 136.146 156.464 135.744 155.096 135.002L154.143 136.76C155.871 137.697 157.945 138.145 160.321 138.156L160.33 136.156ZM155.57 136.192L156.787 132.478L154.886 131.855L153.669 135.569L155.57 136.192ZM155.494 133.106C157.212 133.733 158.8 134.069 160.244 134.076L160.253 132.076C159.105 132.07 157.751 131.801 156.179 131.227L155.494 133.106ZM160.244 134.076C160.981 134.079 161.69 134.006 162.228 133.74L161.342 131.947C161.24 131.997 160.924 132.079 160.253 132.076L160.244 134.076ZM162.245 133.731C162.529 133.584 162.8 133.373 162.998 133.074C163.201 132.768 163.291 132.426 163.293 132.083L161.293 132.073C161.293 132.073 161.293 132.06 161.3 132.037C161.306 132.014 161.317 131.99 161.331 131.968C161.361 131.924 161.378 131.928 161.325 131.955L162.245 133.731ZM163.293 132.083C163.295 131.558 163.076 131.102 162.708 130.764L161.356 132.237C161.356 132.238 161.336 132.219 161.317 132.178C161.298 132.135 161.293 132.096 161.293 132.073L163.293 132.083ZM162.742 130.797C162.408 130.459 161.881 130.203 161.349 129.991L160.607 131.848C160.847 131.944 161.026 132.028 161.154 132.098C161.29 132.173 161.329 132.212 161.321 132.204L162.742 130.797ZM161.349 129.991C160.777 129.762 159.949 129.492 158.887 129.18L158.325 131.1C159.371 131.406 160.126 131.656 160.607 131.848L161.349 129.991ZM158.894 129.183C157.75 128.838 156.928 128.304 156.362 127.617L154.819 128.89C155.684 129.938 156.873 130.662 158.317 131.097L158.894 129.183ZM156.367 127.624C155.797 126.92 155.52 126.134 155.524 125.229L153.524 125.219C153.518 126.587 153.952 127.82 154.814 128.883L156.367 127.624ZM155.524 125.229C155.531 123.707 156.02 122.704 156.881 122.041L155.66 120.456C154.209 121.574 153.533 123.222 153.524 125.219L155.524 125.229ZM156.882 122.04C157.828 121.309 159.158 120.895 160.976 120.903L160.985 118.903C158.868 118.893 157.058 119.376 155.659 120.457L156.882 122.04ZM160.976 120.903C161.927 120.908 162.86 121.016 163.778 121.228L164.228 119.28C163.164 119.034 162.083 118.909 160.985 118.903L160.976 120.903ZM163.794 121.232C164.705 121.427 165.49 121.713 166.159 122.08L167.119 120.326C166.256 119.853 165.284 119.506 164.213 119.276L163.794 121.232ZM165.699 120.861L164.386 124.479L166.266 125.162L167.579 121.544L165.699 120.861ZM165.652 123.875C164.729 123.557 163.899 123.322 163.169 123.18L162.786 125.142C163.398 125.262 164.135 125.467 165.001 125.766L165.652 123.875ZM163.196 123.185C162.476 123.024 161.764 122.939 161.063 122.936L161.054 124.936C161.6 124.938 162.168 125.004 162.758 125.137L163.196 123.185ZM161.063 122.936C160.477 122.933 159.879 123.004 159.395 123.266C159.137 123.405 158.895 123.606 158.72 123.889C158.544 124.174 158.472 124.485 158.47 124.787L160.47 124.797C160.47 124.811 160.465 124.871 160.422 124.94C160.38 125.007 160.337 125.03 160.344 125.026C160.357 125.019 160.413 124.993 160.539 124.971C160.664 124.949 160.832 124.935 161.054 124.936L161.063 122.936ZM158.47 124.787C158.467 125.544 158.933 126.069 159.441 126.386L160.501 124.691C160.417 124.638 160.409 124.614 160.425 124.638C160.434 124.651 160.447 124.674 160.456 124.706C160.466 124.739 160.47 124.77 160.47 124.797L158.47 124.787ZM159.488 126.414C159.952 126.67 160.768 126.948 161.826 127.254L162.381 125.332C161.298 125.019 160.692 124.795 160.454 124.663L159.488 126.414ZM161.841 127.258C163.403 127.682 164.482 128.301 165.175 129.053L166.645 127.697C165.619 126.585 164.16 125.816 162.366 125.328L161.841 127.258ZM165.181 129.059C165.862 129.785 166.196 130.635 166.191 131.665L168.191 131.674C168.198 130.144 167.678 128.798 166.639 127.691L165.181 129.059ZM166.191 131.665C166.184 133.204 165.692 134.264 164.807 134.994L166.081 136.536C167.509 135.358 168.182 133.686 168.191 131.674L166.191 131.665ZM164.814 134.988C163.909 135.723 162.469 136.167 160.33 136.156L160.321 138.156C162.694 138.168 164.667 137.684 166.074 136.542L164.814 134.988Z" fill="black" mask="url(#path-8-outside-1_102_181)"/>
</svg>
