<svg width="238" height="362" viewBox="0 0 238 362" fill="none" xmlns="http://www.w3.org/2000/svg">
<mask id="mask0_202_1691" style="mask-type:alpha" maskUnits="userSpaceOnUse" x="0" y="50" width="120" height="312">
<path fill-rule="evenodd" clip-rule="evenodd" d="M12.4499 352.515C18.811 355.568 37.1818 361.446 59.7763 360.53C82.3708 361.446 100.742 355.568 107.103 352.515C107.103 346.103 105.322 340.938 103.668 340.302C102.202 337.161 100.542 334.71 98.8465 332.208C94.3605 325.586 89.6321 318.607 87.6378 297.555C84.2028 261.297 101.378 194.124 109.774 170.843C116.492 152.217 118.425 127.46 118.553 117.41L114.736 51H59.7763H4.81664L1 117.41C1.12722 127.46 3.06099 152.217 9.77828 170.843C18.1749 194.124 35.3498 261.297 31.9148 297.555C29.9204 318.607 25.1921 325.586 20.7061 332.208C19.0109 334.71 17.3503 337.161 15.8849 340.302C14.231 340.938 12.4499 346.103 12.4499 352.515Z" fill="#C4C4C4"/>
<path d="M59.7763 360.53L59.7965 360.03L59.7763 360.029L59.756 360.03L59.7763 360.53ZM12.4499 352.515H11.9499V352.829L12.2336 352.966L12.4499 352.515ZM107.103 352.515L107.319 352.966L107.603 352.829V352.515H107.103ZM103.668 340.302L103.215 340.513L103.3 340.696L103.488 340.768L103.668 340.302ZM98.8465 332.208L99.2605 331.928L99.2605 331.928L98.8465 332.208ZM87.6378 297.555L88.1356 297.508L88.1356 297.508L87.6378 297.555ZM109.774 170.843L110.245 171.012L110.245 171.012L109.774 170.843ZM118.553 117.41L119.053 117.416L119.053 117.398L119.052 117.381L118.553 117.41ZM114.736 51L115.235 50.9713L115.208 50.5H114.736V51ZM4.81664 51V50.5H4.34455L4.31747 50.9713L4.81664 51ZM1 117.41L0.500824 117.381L0.499818 117.398L0.50004 117.416L1 117.41ZM9.77828 170.843L10.2486 170.673L10.2486 170.673L9.77828 170.843ZM31.9148 297.555L32.4126 297.602L32.4126 297.602L31.9148 297.555ZM20.7061 332.208L20.2921 331.928L20.2921 331.928L20.7061 332.208ZM15.8849 340.302L16.0644 340.768L16.2527 340.696L16.338 340.513L15.8849 340.302ZM59.756 360.03C37.2465 360.943 18.9567 355.083 12.6663 352.064L12.2336 352.966C18.6653 356.053 37.117 361.949 59.7965 361.029L59.756 360.03ZM59.756 361.029C82.4356 361.949 100.887 356.053 107.319 352.966L106.886 352.064C100.596 355.083 82.3061 360.943 59.7965 360.03L59.756 361.029ZM107.603 352.515C107.603 349.266 107.152 346.323 106.484 344.098C106.151 342.987 105.759 342.041 105.332 341.321C104.917 340.622 104.423 340.056 103.847 339.835L103.488 340.768C103.739 340.865 104.088 341.183 104.472 341.832C104.844 342.46 105.208 343.325 105.526 344.386C106.163 346.506 106.603 349.352 106.603 352.515H107.603ZM104.121 340.09C102.636 336.909 100.954 334.428 99.2605 331.928L98.4326 332.488C100.129 334.992 101.768 337.413 103.215 340.513L104.121 340.09ZM99.2605 331.928C97.0197 328.62 94.7448 325.26 92.7747 320.114C90.8032 314.964 89.1298 308.003 88.1356 297.508L87.14 297.602C88.1401 308.159 89.8281 315.214 91.8408 320.471C93.8551 325.733 96.1873 329.174 98.4326 332.488L99.2605 331.928ZM88.1356 297.508C86.4255 279.457 89.8466 253.661 94.7592 229.432C99.6696 205.214 106.057 182.625 110.245 171.012L109.304 170.673C105.095 182.342 98.6966 204.98 93.7792 229.233C88.864 253.475 85.4151 279.395 87.14 297.602L88.1356 297.508ZM110.245 171.012C116.989 152.311 118.925 127.489 119.053 117.416L118.053 117.403C117.926 127.431 115.994 152.124 109.304 170.673L110.245 171.012ZM119.052 117.381L115.235 50.9713L114.237 51.0287L118.053 117.438L119.052 117.381ZM114.736 50.5H59.7763V51.5H114.736V50.5ZM4.81664 51.5H59.7763V50.5H4.81664V51.5ZM1.49918 117.438L5.31582 51.0287L4.31747 50.9713L0.500824 117.381L1.49918 117.438ZM10.2486 170.673C3.55887 152.124 1.62689 127.431 1.49996 117.403L0.50004 117.416C0.627549 127.489 2.5631 152.311 9.30793 171.012L10.2486 170.673ZM32.4126 297.602C34.1375 279.395 30.6886 253.475 25.7734 229.233C20.856 204.98 14.4572 182.342 10.2486 170.673L9.30793 171.012C13.496 182.625 19.8829 205.214 24.7934 229.432C29.706 253.661 33.1271 279.457 31.417 297.508L32.4126 297.602ZM21.12 332.488C23.3653 329.174 25.6975 325.733 27.7118 320.471C29.7245 315.214 31.4125 308.159 32.4126 297.602L31.417 297.508C30.4228 308.003 28.7494 314.964 26.7779 320.114C24.8078 325.26 22.5329 328.62 20.2921 331.928L21.12 332.488ZM16.338 340.513C17.7844 337.413 19.4236 334.992 21.12 332.488L20.2921 331.928C18.5981 334.428 16.9161 336.909 15.4318 340.09L16.338 340.513ZM12.9499 352.515C12.9499 349.352 13.3897 346.506 14.0261 344.386C14.3447 343.325 14.7081 342.46 15.0805 341.832C15.4649 341.183 15.8132 340.865 16.0644 340.768L15.7054 339.835C15.1297 340.056 14.6352 340.622 14.2204 341.321C13.7937 342.041 13.4018 342.987 13.0683 344.098C12.4007 346.323 11.9499 349.266 11.9499 352.515H12.9499Z" fill="black"/>
</mask>
<g mask="url(#mask0_202_1691)">
<rect y="352" width="127" height="22" fill="url(#paint0_linear_202_1691)"/>
<rect x="22" y="351" width="76" height="3" fill="url(#paint1_linear_202_1691)"/>
<g style="mix-blend-mode:overlay" filter="url(#filter0_f_202_1691)">
<path d="M33 362L59.3571 362.667L87 362V363.333L59.3571 364L33 363.333V362Z" fill="#6A3417"/>
</g>
<g style="mix-blend-mode:overlay" filter="url(#filter1_f_202_1691)">
<path d="M87 355.882L60.6429 356L33 355.882L33 354L60.6429 354L87 354L87 355.882Z" fill="#6A3417"/>
</g>
<g filter="url(#filter2_f_202_1691)">
<path fill-rule="evenodd" clip-rule="evenodd" d="M59.7763 360.53C37.1818 361.446 18.811 355.568 12.45 352.515C12.45 346.103 14.2311 340.938 15.8849 340.302C17.3503 337.161 19.0109 334.71 20.7061 332.208C21.5802 330.918 22.4635 329.614 23.334 328.195C35.8569 333.991 64.0292 340.414 96.3761 328.45C97.1955 329.771 98.0251 330.995 98.8466 332.208C100.542 334.71 102.202 337.161 103.668 340.302C105.322 340.938 107.103 346.103 107.103 352.515C100.742 355.568 82.3708 361.446 59.7763 360.53Z" fill="url(#paint2_linear_202_1691)"/>
<path d="M59.8573 358.531L59.7763 358.528L59.6953 358.531C38.7142 359.382 21.473 354.272 14.475 351.239C14.5739 348.726 14.9572 346.502 15.4628 344.817C15.7591 343.83 16.0797 343.088 16.3708 342.597C16.549 342.296 16.6691 342.168 16.7086 342.128L17.3561 341.879L17.6973 341.147C19.0869 338.169 20.6618 335.839 22.3619 333.33L22.3722 333.315C22.9378 332.48 23.519 331.622 24.1028 330.722C37.49 336.39 64.5699 341.84 95.55 330.876C96.1003 331.72 96.6478 332.528 97.1814 333.316L97.1908 333.33C98.8908 335.839 100.466 338.169 101.855 341.147L102.197 341.879L102.844 342.128C102.884 342.168 103.004 342.296 103.182 342.597C103.473 343.088 103.794 343.83 104.09 344.817C104.595 346.502 104.979 348.726 105.078 351.239C98.0796 354.272 80.8384 359.382 59.8573 358.531Z" stroke="#373131" stroke-opacity="0.5" stroke-width="4"/>
</g>
<g filter="url(#filter3_f_202_1691)">
<path d="M59.7763 360.53L59.8573 358.531L59.7763 358.528L59.6953 358.531L59.7763 360.53ZM12.4499 352.515H10.4499V353.773L11.5845 354.318L12.4499 352.515ZM107.103 352.515L107.968 354.318L109.103 353.773V352.515H107.103ZM103.668 340.302L101.855 341.147L102.197 341.879L102.95 342.168L103.668 340.302ZM98.8465 332.208L100.502 331.086L100.502 331.086L98.8465 332.208ZM87.6378 297.555L89.6289 297.366L89.6289 297.366L87.6378 297.555ZM109.774 170.843L111.656 171.521L111.656 171.521L109.774 170.843ZM118.553 117.41L120.552 117.435L120.553 117.365L120.549 117.295L118.553 117.41ZM114.736 51L116.733 50.8852L116.624 49H114.736V51ZM4.81664 51V49H2.92828L2.81994 50.8852L4.81664 51ZM1 117.41L-0.996705 117.295L-1.00073 117.365L-0.99984 117.435L1 117.41ZM9.77828 170.843L11.6597 170.164L11.6597 170.164L9.77828 170.843ZM31.9148 297.555L33.9059 297.744L33.9059 297.744L31.9148 297.555ZM20.7061 332.208L19.0503 331.086L19.0503 331.086L20.7061 332.208ZM15.8849 340.302L16.6028 342.168L17.356 341.879L17.6973 341.147L15.8849 340.302ZM59.6953 358.531C37.4408 359.434 19.3939 353.629 13.3154 350.712L11.5845 354.318C18.2281 357.507 36.9228 363.458 59.8573 362.528L59.6953 358.531ZM59.6953 362.528C82.6298 363.458 101.325 357.507 107.968 354.318L106.237 350.712C100.159 353.629 82.1118 359.434 59.8573 358.531L59.6953 362.528ZM109.103 352.515C109.103 349.138 108.635 346.047 107.921 343.667C107.565 342.482 107.13 341.413 106.622 340.556C106.162 339.78 105.448 338.843 104.386 338.435L102.95 342.168C102.714 342.078 102.843 342.025 103.182 342.597C103.473 343.087 103.794 343.83 104.09 344.817C104.679 346.782 105.103 349.48 105.103 352.515H109.103ZM105.48 339.456C103.939 336.153 102.193 333.581 100.502 331.086L97.1907 333.33C98.8908 335.839 100.466 338.169 101.855 341.147L105.48 339.456ZM100.502 331.086C98.2684 327.789 96.0793 324.551 94.1756 319.578C92.2658 314.589 90.6143 307.769 89.6289 297.366L85.6467 297.744C86.6556 308.393 88.3655 315.589 90.44 321.008C92.5205 326.443 94.9386 330.005 97.1907 333.33L100.502 331.086ZM89.6289 297.366C87.9411 279.551 91.3204 253.941 96.2293 229.73C101.129 205.564 107.498 183.048 111.656 171.521L107.893 170.164C103.654 181.919 97.2371 204.63 92.3091 228.935C87.3901 253.196 83.8995 279.301 85.6467 297.744L89.6289 297.366ZM111.656 171.521C118.483 152.59 120.424 127.576 120.552 117.435L116.553 117.384C116.427 127.344 114.5 151.844 107.893 170.164L111.656 171.521ZM120.549 117.295L116.733 50.8852L112.739 51.1148L116.556 117.524L120.549 117.295ZM114.736 49H59.7763V53H114.736V49ZM4.81664 53H59.7763V49H4.81664V53ZM2.99671 117.524L6.81335 51.1148L2.81994 50.8852L-0.996705 117.295L2.99671 117.524ZM11.6597 170.164C5.05253 151.844 3.12591 127.344 2.99984 117.384L-0.99984 117.435C-0.871468 127.576 1.06944 152.59 7.8969 171.521L11.6597 170.164ZM33.9059 297.744C35.6531 279.301 32.1625 253.196 27.2435 228.935C22.3155 204.63 15.899 181.919 11.6597 170.164L7.8969 171.521C12.0542 183.048 18.4234 205.564 23.3233 229.73C28.2321 253.941 31.6115 279.551 29.9237 297.366L33.9059 297.744ZM22.3619 333.33C24.614 330.005 27.032 326.443 29.1126 321.008C31.1871 315.589 32.897 308.393 33.9059 297.744L29.9237 297.366C28.9383 307.769 27.2868 314.589 25.377 319.578C23.4733 324.551 21.2842 327.789 19.0503 331.086L22.3619 333.33ZM17.6973 341.147C19.0869 338.169 20.6618 335.839 22.3619 333.33L19.0503 331.086C17.36 333.581 15.6137 336.153 14.0725 339.456L17.6973 341.147ZM14.4499 352.515C14.4499 349.48 14.8732 346.782 15.4628 344.817C15.759 343.83 16.0797 343.087 16.3708 342.597C16.7094 342.025 16.8383 342.078 16.6028 342.168L15.167 338.435C14.1045 338.843 13.3906 339.78 12.9301 340.556C12.4221 341.413 11.9874 342.482 11.6316 343.667C10.9172 346.047 10.4499 349.138 10.4499 352.515H14.4499Z" fill="black"/>
<path d="M59.7763 360.53L59.8573 358.531L59.7763 358.528L59.6953 358.531L59.7763 360.53ZM12.4499 352.515H10.4499V353.773L11.5845 354.318L12.4499 352.515ZM107.103 352.515L107.968 354.318L109.103 353.773V352.515H107.103ZM103.668 340.302L101.855 341.147L102.197 341.879L102.95 342.168L103.668 340.302ZM98.8465 332.208L100.502 331.086L100.502 331.086L98.8465 332.208ZM87.6378 297.555L89.6289 297.366L89.6289 297.366L87.6378 297.555ZM109.774 170.843L111.656 171.521L111.656 171.521L109.774 170.843ZM118.553 117.41L120.552 117.435L120.553 117.365L120.549 117.295L118.553 117.41ZM114.736 51L116.733 50.8852L116.624 49H114.736V51ZM4.81664 51V49H2.92828L2.81994 50.8852L4.81664 51ZM1 117.41L-0.996705 117.295L-1.00073 117.365L-0.99984 117.435L1 117.41ZM9.77828 170.843L11.6597 170.164L11.6597 170.164L9.77828 170.843ZM31.9148 297.555L33.9059 297.744L33.9059 297.744L31.9148 297.555ZM20.7061 332.208L19.0503 331.086L19.0503 331.086L20.7061 332.208ZM15.8849 340.302L16.6028 342.168L17.356 341.879L17.6973 341.147L15.8849 340.302ZM59.6953 358.531C37.4408 359.434 19.3939 353.629 13.3154 350.712L11.5845 354.318C18.2281 357.507 36.9228 363.458 59.8573 362.528L59.6953 358.531ZM59.6953 362.528C82.6298 363.458 101.325 357.507 107.968 354.318L106.237 350.712C100.159 353.629 82.1118 359.434 59.8573 358.531L59.6953 362.528ZM109.103 352.515C109.103 349.138 108.635 346.047 107.921 343.667C107.565 342.482 107.13 341.413 106.622 340.556C106.162 339.78 105.448 338.843 104.386 338.435L102.95 342.168C102.714 342.078 102.843 342.025 103.182 342.597C103.473 343.087 103.794 343.83 104.09 344.817C104.679 346.782 105.103 349.48 105.103 352.515H109.103ZM105.48 339.456C103.939 336.153 102.193 333.581 100.502 331.086L97.1907 333.33C98.8908 335.839 100.466 338.169 101.855 341.147L105.48 339.456ZM100.502 331.086C98.2684 327.789 96.0793 324.551 94.1756 319.578C92.2658 314.589 90.6143 307.769 89.6289 297.366L85.6467 297.744C86.6556 308.393 88.3655 315.589 90.44 321.008C92.5205 326.443 94.9386 330.005 97.1907 333.33L100.502 331.086ZM89.6289 297.366C87.9411 279.551 91.3204 253.941 96.2293 229.73C101.129 205.564 107.498 183.048 111.656 171.521L107.893 170.164C103.654 181.919 97.2371 204.63 92.3091 228.935C87.3901 253.196 83.8995 279.301 85.6467 297.744L89.6289 297.366ZM111.656 171.521C118.483 152.59 120.424 127.576 120.552 117.435L116.553 117.384C116.427 127.344 114.5 151.844 107.893 170.164L111.656 171.521ZM120.549 117.295L116.733 50.8852L112.739 51.1148L116.556 117.524L120.549 117.295ZM114.736 49H59.7763V53H114.736V49ZM4.81664 53H59.7763V49H4.81664V53ZM2.99671 117.524L6.81335 51.1148L2.81994 50.8852L-0.996705 117.295L2.99671 117.524ZM11.6597 170.164C5.05253 151.844 3.12591 127.344 2.99984 117.384L-0.99984 117.435C-0.871468 127.576 1.06944 152.59 7.8969 171.521L11.6597 170.164ZM33.9059 297.744C35.6531 279.301 32.1625 253.196 27.2435 228.935C22.3155 204.63 15.899 181.919 11.6597 170.164L7.8969 171.521C12.0542 183.048 18.4234 205.564 23.3233 229.73C28.2321 253.941 31.6115 279.551 29.9237 297.366L33.9059 297.744ZM22.3619 333.33C24.614 330.005 27.032 326.443 29.1126 321.008C31.1871 315.589 32.897 308.393 33.9059 297.744L29.9237 297.366C28.9383 307.769 27.2868 314.589 25.377 319.578C23.4733 324.551 21.2842 327.789 19.0503 331.086L22.3619 333.33ZM17.6973 341.147C19.0869 338.169 20.6618 335.839 22.3619 333.33L19.0503 331.086C17.36 333.581 15.6137 336.153 14.0725 339.456L17.6973 341.147ZM14.4499 352.515C14.4499 349.48 14.8732 346.782 15.4628 344.817C15.759 343.83 16.0797 343.087 16.3708 342.597C16.7094 342.025 16.8383 342.078 16.6028 342.168L15.167 338.435C14.1045 338.843 13.3906 339.78 12.9301 340.556C12.4221 341.413 11.9874 342.482 11.6316 343.667C10.9172 346.047 10.4499 349.138 10.4499 352.515H14.4499Z" fill="url(#paint3_linear_202_1691)"/>
</g>
<g filter="url(#filter4_f_202_1691)">
<path d="M28.4951 51L25.4265 108.469C26.1937 121.24 29.1856 150.457 35.0159 165.157C42.3039 183.531 62.6335 297.688 38.0846 340.302" stroke="url(#paint4_linear_202_1691)" stroke-width="20"/>
</g>
<g opacity="0.6" filter="url(#filter5_f_202_1691)">
<path d="M100.217 51L103.286 108.469C102.519 121.24 99.527 150.457 93.6966 165.157C86.4086 183.531 66.079 297.688 90.628 340.302" stroke="url(#paint5_linear_202_1691)" stroke-width="14"/>
</g>
<g style="mix-blend-mode:overlay" filter="url(#filter6_f_202_1691)">
<path d="M33 320L59.3571 323L87 320V326L59.3571 329L33 326V320Z" fill="#6A3417"/>
</g>
</g>
<mask id="mask1_202_1691" style="mask-type:alpha" maskUnits="userSpaceOnUse" x="149" y="0" width="89" height="354">
<path fill-rule="evenodd" clip-rule="evenodd" d="M149 152.347L149 149.682C149 148.468 149.433 147.354 150.153 146.488C151.287 141.816 153.138 136.266 155.707 133.184C159.54 128.585 165.608 117.215 168.163 112.105C168.483 111.466 169.121 109.422 169.121 106.356C169.121 102.523 169.121 91.0251 171.038 76.6527C172.571 65.1548 174.87 33.5356 175.828 19.1632V17.2469L173.912 14.3724C173.912 13.4142 174.295 10.5397 175.828 6.70711C177.362 2.87447 177.106 2.55509 176.787 2.87447V0L193.075 0V144.682L193.075 0L209.364 0V2.87447C209.045 2.55509 208.789 2.87447 210.322 6.70711C211.855 10.5397 212.239 13.4142 212.239 14.3724L210.322 17.2469V19.1632C211.28 33.5356 213.58 65.1548 215.113 76.6527C217.029 91.0251 217.029 102.523 217.029 106.356C217.029 109.422 217.668 111.466 217.987 112.105C220.543 117.215 226.611 128.585 230.444 133.184C233.012 136.266 234.864 141.816 235.998 146.488C236.718 147.354 237.151 148.468 237.151 149.682V152.347V339.18L237.151 339.188L237.151 339.197V340.895C237.151 343.657 234.912 345.895 232.151 345.895H232.067C224.677 350.454 209.989 353.561 193.075 353.561C176.162 353.561 161.474 350.454 154.084 345.895H154C151.239 345.895 149 343.657 149 340.895L149 152.347Z" fill="url(#paint6_linear_202_1691)"/>
</mask>
<g mask="url(#mask1_202_1691)">
<path fill-rule="evenodd" clip-rule="evenodd" d="M149 152.347C149.639 147.876 151.874 137.783 155.707 133.184C159.54 128.585 165.608 117.215 168.163 112.105C168.483 111.466 169.121 109.422 169.121 106.356C169.121 102.523 169.121 91.0251 171.038 76.6527C172.571 65.1548 174.87 33.5356 175.828 19.1632V17.2469L173.912 14.3724C173.912 13.4142 174.295 10.5397 175.828 6.70711C177.362 2.87447 177.106 2.55509 176.787 2.87447V0L193.075 0V152.347H149ZM209.364 0L193.075 0V152.347H237.151C236.512 147.876 234.276 137.783 230.444 133.184C226.611 128.585 220.543 117.215 217.987 112.105C217.668 111.466 217.029 109.422 217.029 106.356C217.029 102.523 217.029 91.0251 215.113 76.6527C213.58 65.1548 211.28 33.5356 210.322 19.1632V17.2469L212.239 14.3724C212.239 13.4142 211.855 10.5397 210.322 6.70711C208.789 2.87447 209.045 2.55509 209.364 2.87447V0Z" fill="url(#paint7_linear_202_1691)"/>
<path fill-rule="evenodd" clip-rule="evenodd" d="M154 144.682C151.239 144.682 149 146.921 149 149.682V340.895C149 343.657 151.239 345.895 154 345.895H154.084C161.474 350.454 176.162 353.561 193.075 353.561C209.989 353.561 224.677 350.454 232.067 345.895H232.151C234.912 345.895 237.151 343.657 237.151 340.895V339.197C237.151 339.194 237.151 339.191 237.151 339.188C237.151 339.185 237.151 339.183 237.151 339.18V149.682C237.151 146.921 234.912 144.682 232.151 144.682H154Z" fill="url(#paint8_linear_202_1691)"/>
<g filter="url(#filter7_f_202_1691)">
<ellipse cx="193.075" cy="344.937" rx="44.0753" ry="9.58159" fill="url(#paint9_linear_202_1691)"/>
</g>
<g filter="url(#filter8_f_202_1691)">
<path d="M164.331 126.477H221.82L233.318 149.473H152.833L164.331 126.477Z" fill="url(#paint10_linear_202_1691)"/>
</g>
<g filter="url(#filter9_f_202_1691)">
<rect x="171.996" y="114.979" width="40.2427" height="13.4142" rx="6.70711" fill="black"/>
</g>
<g filter="url(#filter10_f_202_1691)">
<rect x="162.414" y="331.523" width="180.134" height="13.4142" rx="6.70712" transform="rotate(-90 162.414 331.523)" fill="white" fill-opacity="0.5"/>
</g>
<g filter="url(#filter11_f_202_1691)">
<rect x="179.661" y="110.452" width="101.044" height="2.88446" rx="1.44223" transform="rotate(-86.6393 179.661 110.452)" fill="white"/>
</g>
<g filter="url(#filter12_f_202_1691)">
<rect x="179.661" y="104.932" width="11.0519" height="2.40963" rx="1.20481" transform="rotate(-86.6393 179.661 104.932)" fill="white"/>
</g>
<g filter="url(#filter13_f_202_1691)">
<rect x="183.494" y="32.1123" width="11.0519" height="2.40963" rx="1.20481" transform="rotate(-86.6393 183.494 32.1123)" fill="white"/>
</g>
<g filter="url(#filter14_f_202_1691)">
<rect x="197.31" y="28.9365" width="7.75416" height="5.34987" rx="2.67493" transform="rotate(-92.0543 197.31 28.9365)" fill="white"/>
</g>
<g filter="url(#filter15_f_202_1691)">
<rect x="185.41" y="12.9492" width="11.0519" height="2.40963" rx="1.20481" transform="rotate(-86.6393 185.41 12.9492)" fill="white"/>
</g>
<g filter="url(#filter16_f_202_1691)">
<rect x="199.821" y="13.1343" width="11.0519" height="2.40963" rx="1.20481" transform="rotate(-96.9213 199.821 13.1343)" fill="white"/>
</g>
<g filter="url(#filter17_f_202_1691)">
<rect x="201.492" y="110.643" width="101.044" height="2.88446" rx="1.44223" transform="rotate(-91.8418 201.492 110.643)" fill="white"/>
</g>
<g filter="url(#filter18_f_202_1691)">
<rect x="206.49" y="331.523" width="191.632" height="19.1632" rx="9.58159" transform="rotate(-90 206.49 331.523)" fill="white" fill-opacity="0.5"/>
</g>
<g filter="url(#filter19_f_202_1691)">
<rect x="216.071" y="331.523" width="191.632" height="5.74896" rx="2.87448" transform="rotate(-90 216.071 331.523)" fill="white" fill-opacity="0.8"/>
</g>
<g filter="url(#filter20_f_202_1691)">
<rect x="159.83" y="149.774" width="27.9947" height="14.367" rx="7.18348" transform="rotate(-64.2422 159.83 149.774)" fill="white" fill-opacity="0.5"/>
</g>
<g filter="url(#filter21_f_202_1691)">
<rect width="27.9947" height="14.367" rx="7.18348" transform="matrix(-0.434567 -0.900639 -0.900639 0.434567 229.678 149.774)" fill="white" fill-opacity="0.5"/>
</g>
<g filter="url(#filter22_f_202_1691)">
<rect x="160.498" y="149.17" width="16.6857" height="14.367" rx="7.18348" transform="rotate(-64.2422 160.498 149.17)" fill="white" fill-opacity="0.8"/>
</g>
<g filter="url(#filter23_f_202_1691)">
<rect x="181.577" y="149.17" width="16.6857" height="14.367" rx="7.18348" transform="rotate(-64.2422 181.577 149.17)" fill="white" fill-opacity="0.8"/>
</g>
<g filter="url(#filter24_f_202_1691)">
<rect width="16.6857" height="14.367" rx="7.18348" transform="matrix(-0.434567 -0.900639 -0.900639 0.434567 229.011 149.17)" fill="white" fill-opacity="0.8"/>
</g>
</g>
<g filter="url(#filter25_f_202_1691)">
<rect x="176.151" y="13.0607" width="34" height="4" fill="#461B03"/>
</g>
<g clip-path="url(#clip0_202_1691)">
<path fill-rule="evenodd" clip-rule="evenodd" d="M160.044 178.428C161.701 167.451 175.891 157.595 193.151 157.595C210.41 157.595 224.6 167.451 226.257 178.428H236.077L236.056 280.992H149.151L149.269 178.428H160.044Z" fill="url(#paint11_linear_202_1691)"/>
<path d="M193.14 210.629C208.465 210.629 222.985 208.855 235.959 205.704V203.834C223.038 207.402 208.486 209.411 193.129 209.411C177.772 209.411 163.499 207.402 150.589 203.845L150.567 205.725C163.531 208.877 177.804 210.629 193.14 210.629Z" fill="url(#paint12_linear_202_1691)"/>
<path d="M193.14 242.595C177.826 242.595 162.748 244.464 149.762 247.605V249.454C162.683 245.896 177.783 243.813 193.14 243.813C208.497 243.813 222.867 245.8 235.777 249.358L235.788 247.499C222.813 244.358 208.465 242.595 193.14 242.595Z" fill="url(#paint13_linear_202_1691)"/>
<path d="M159.367 178.856C159.539 178.856 159.7 178.856 159.872 178.856C162.673 173.118 166.976 168.225 172.288 164.646C178.234 160.64 185.445 158.289 193.215 158.289C193.913 158.289 194.621 158.311 195.308 158.343C204.902 158.866 213.519 162.969 219.787 169.315C222.534 172.103 224.831 175.319 226.558 178.856C226.902 178.856 227.256 178.856 227.599 178.856C229.284 178.856 233.212 178.856 236.099 178.856C236.099 178.45 236.099 178.033 236.11 177.627C233.716 177.627 231.334 177.627 228.941 177.627C228.576 177.627 228.222 177.627 227.857 177.627C226.065 174.091 223.682 170.875 220.817 168.086C214.314 161.74 205.363 157.638 195.404 157.114C194.696 157.082 193.966 157.061 193.236 157.061C185.166 157.061 177.676 159.411 171.505 163.418C165.989 166.997 161.524 171.89 158.616 177.627C158.444 177.627 158.273 177.627 158.101 177.627C155.772 177.627 151.501 177.627 149.172 177.627C149.161 178.033 149.161 178.45 149.151 178.856C152.66 178.856 158.208 178.856 159.367 178.856Z" fill="url(#paint14_linear_202_1691)"/>
<path d="M235.68 274.849H149.269L149.151 281.259H235.659L235.68 274.849Z" fill="url(#paint15_linear_202_1691)"/>
</g>
<path d="M179.057 199V190.273H182.006C182.69 190.273 183.25 190.396 183.685 190.643C184.122 190.888 184.446 191.219 184.656 191.636C184.866 192.054 184.972 192.52 184.972 193.034C184.972 193.548 184.866 194.016 184.656 194.436C184.449 194.857 184.128 195.192 183.693 195.442C183.259 195.689 182.702 195.812 182.023 195.812H179.909V194.875H181.989C182.457 194.875 182.834 194.794 183.118 194.632C183.402 194.47 183.608 194.251 183.736 193.976C183.866 193.697 183.932 193.384 183.932 193.034C183.932 192.685 183.866 192.372 183.736 192.097C183.608 191.821 183.401 191.605 183.114 191.449C182.827 191.29 182.446 191.21 181.972 191.21H180.114V199H179.057ZM186.674 199V190.273H191.941V191.21H187.731V194.159H191.668V195.097H187.731V198.062H192.009V199H186.674ZM196.539 199H193.846V190.273H196.658C197.505 190.273 198.229 190.447 198.832 190.797C199.434 191.143 199.896 191.642 200.217 192.293C200.538 192.94 200.698 193.716 200.698 194.619C200.698 195.528 200.536 196.311 200.212 196.967C199.888 197.621 199.417 198.124 198.798 198.476C198.178 198.825 197.425 199 196.539 199ZM194.903 198.062H196.471C197.192 198.062 197.79 197.923 198.265 197.645C198.739 197.366 199.093 196.97 199.326 196.456C199.559 195.942 199.675 195.33 199.675 194.619C199.675 193.915 199.56 193.308 199.33 192.8C199.1 192.288 198.756 191.896 198.299 191.624C197.842 191.348 197.272 191.21 196.59 191.21H194.903V198.062ZM202.471 199V190.273H207.738V191.21H203.528V194.159H207.465V195.097H203.528V198.062H207.806V199H202.471Z" fill="#5F0000"/>
<path d="M155.673 234V220.182H160.504C161.467 220.182 162.261 220.348 162.886 220.681C163.511 221.009 163.977 221.453 164.283 222.01C164.589 222.564 164.741 223.178 164.741 223.852C164.741 224.446 164.636 224.936 164.424 225.323C164.217 225.71 163.943 226.016 163.601 226.241C163.264 226.466 162.897 226.632 162.501 226.74V226.875C162.924 226.902 163.349 227.05 163.777 227.32C164.204 227.59 164.562 227.977 164.849 228.481C165.137 228.985 165.281 229.601 165.281 230.33C165.281 231.022 165.124 231.645 164.809 232.199C164.494 232.752 163.997 233.19 163.318 233.514C162.639 233.838 161.755 234 160.666 234H155.673ZM157.347 232.516H160.666C161.759 232.516 162.535 232.304 162.994 231.881C163.457 231.454 163.689 230.937 163.689 230.33C163.689 229.862 163.57 229.43 163.331 229.034C163.093 228.634 162.753 228.314 162.312 228.076C161.872 227.833 161.35 227.712 160.747 227.712H157.347V232.516ZM157.347 226.254H160.45C160.954 226.254 161.408 226.155 161.813 225.957C162.223 225.759 162.546 225.481 162.785 225.121C163.028 224.761 163.149 224.338 163.149 223.852C163.149 223.245 162.938 222.73 162.515 222.307C162.092 221.88 161.422 221.666 160.504 221.666H157.347V226.254ZM168.031 234V220.182H176.37V221.666H169.704V226.335H175.938V227.82H169.704V232.516H176.478V234H168.031ZM179.386 234V220.182H184.217C185.18 220.182 185.974 220.348 186.599 220.681C187.224 221.009 187.69 221.453 187.996 222.01C188.301 222.564 188.454 223.178 188.454 223.852C188.454 224.446 188.349 224.936 188.137 225.323C187.93 225.71 187.656 226.016 187.314 226.241C186.977 226.466 186.61 226.632 186.214 226.74V226.875C186.637 226.902 187.062 227.05 187.49 227.32C187.917 227.59 188.274 227.977 188.562 228.481C188.85 228.985 188.994 229.601 188.994 230.33C188.994 231.022 188.837 231.645 188.522 232.199C188.207 232.752 187.71 233.19 187.031 233.514C186.352 233.838 185.468 234 184.379 234H179.386ZM181.059 232.516H184.379C185.472 232.516 186.248 232.304 186.707 231.881C187.17 231.454 187.402 230.937 187.402 230.33C187.402 229.862 187.283 229.43 187.044 229.034C186.806 228.634 186.466 228.314 186.025 228.076C185.585 227.833 185.063 227.712 184.46 227.712H181.059V232.516ZM181.059 226.254H184.163C184.667 226.254 185.121 226.155 185.526 225.957C185.935 225.759 186.259 225.481 186.498 225.121C186.741 224.761 186.862 224.338 186.862 223.852C186.862 223.245 186.651 222.73 186.228 222.307C185.805 221.88 185.135 221.666 184.217 221.666H181.059V226.254ZM193.417 220.182V234H191.744V220.182H193.417ZM201.036 234H196.772V220.182H201.225C202.565 220.182 203.713 220.458 204.666 221.012C205.62 221.56 206.351 222.35 206.859 223.38C207.367 224.406 207.621 225.634 207.621 227.064C207.621 228.503 207.365 229.743 206.852 230.782C206.339 231.816 205.593 232.612 204.612 233.17C203.632 233.723 202.44 234 201.036 234ZM198.445 232.516H200.928C202.071 232.516 203.018 232.295 203.769 231.854C204.52 231.414 205.08 230.786 205.449 229.972C205.818 229.158 206.002 228.188 206.002 227.064C206.002 225.948 205.82 224.988 205.456 224.183C205.091 223.373 204.547 222.752 203.823 222.321C203.099 221.884 202.197 221.666 201.117 221.666H198.445V232.516ZM210.346 234H208.591L213.665 220.182H215.392L220.466 234H218.712L214.583 222.368H214.475L210.346 234ZM210.993 228.602H218.064V230.087H210.993V228.602ZM230.175 223.636C230.094 222.953 229.766 222.422 229.19 222.044C228.615 221.666 227.908 221.477 227.072 221.477C226.46 221.477 225.925 221.576 225.466 221.774C225.012 221.972 224.656 222.244 224.4 222.591C224.148 222.937 224.022 223.33 224.022 223.771C224.022 224.14 224.11 224.457 224.285 224.723C224.465 224.984 224.694 225.202 224.973 225.377C225.252 225.548 225.545 225.69 225.85 225.802C226.156 225.91 226.438 225.998 226.694 226.065L228.097 226.443C228.457 226.538 228.857 226.668 229.298 226.835C229.744 227.001 230.169 227.228 230.574 227.516C230.983 227.799 231.32 228.164 231.586 228.609C231.851 229.054 231.984 229.601 231.984 230.249C231.984 230.995 231.788 231.67 231.397 232.273C231.01 232.875 230.443 233.355 229.696 233.71C228.954 234.065 228.052 234.243 226.991 234.243C226.001 234.243 225.144 234.083 224.42 233.764C223.7 233.444 223.134 232.999 222.72 232.428C222.31 231.857 222.079 231.193 222.025 230.438H223.752C223.797 230.959 223.973 231.391 224.278 231.733C224.589 232.07 224.98 232.322 225.452 232.489C225.929 232.651 226.442 232.732 226.991 232.732C227.629 232.732 228.203 232.628 228.711 232.421C229.22 232.21 229.622 231.917 229.919 231.544C230.216 231.166 230.364 230.725 230.364 230.222C230.364 229.763 230.236 229.389 229.98 229.102C229.723 228.814 229.386 228.58 228.968 228.4C228.549 228.22 228.097 228.062 227.612 227.928L225.911 227.442C224.832 227.131 223.977 226.688 223.347 226.113C222.718 225.537 222.403 224.783 222.403 223.852C222.403 223.079 222.612 222.404 223.03 221.828C223.453 221.248 224.02 220.798 224.73 220.479C225.446 220.155 226.244 219.993 227.126 219.993C228.016 219.993 228.808 220.153 229.501 220.472C230.193 220.787 230.742 221.219 231.147 221.767C231.556 222.316 231.772 222.939 231.795 223.636H230.175Z" fill="#5F0000"/>
<defs>
<filter id="filter0_f_202_1691" x="28" y="357" width="64" height="12" filterUnits="userSpaceOnUse" color-interpolation-filters="sRGB">
<feFlood flood-opacity="0" result="BackgroundImageFix"/>
<feBlend mode="normal" in="SourceGraphic" in2="BackgroundImageFix" result="shape"/>
<feGaussianBlur stdDeviation="2.5" result="effect1_foregroundBlur_202_1691"/>
</filter>
<filter id="filter1_f_202_1691" x="28" y="349" width="64" height="12" filterUnits="userSpaceOnUse" color-interpolation-filters="sRGB">
<feFlood flood-opacity="0" result="BackgroundImageFix"/>
<feBlend mode="normal" in="SourceGraphic" in2="BackgroundImageFix" result="shape"/>
<feGaussianBlur stdDeviation="2.5" result="effect1_foregroundBlur_202_1691"/>
</filter>
<filter id="filter2_f_202_1691" x="8.44995" y="324.195" width="102.653" height="40.4305" filterUnits="userSpaceOnUse" color-interpolation-filters="sRGB">
<feFlood flood-opacity="0" result="BackgroundImageFix"/>
<feBlend mode="normal" in="SourceGraphic" in2="BackgroundImageFix" result="shape"/>
<feGaussianBlur stdDeviation="2" result="effect1_foregroundBlur_202_1691"/>
</filter>
<filter id="filter3_f_202_1691" x="-7.00073" y="43" width="133.554" height="325.625" filterUnits="userSpaceOnUse" color-interpolation-filters="sRGB">
<feFlood flood-opacity="0" result="BackgroundImageFix"/>
<feBlend mode="normal" in="SourceGraphic" in2="BackgroundImageFix" result="shape"/>
<feGaussianBlur stdDeviation="3" result="effect1_foregroundBlur_202_1691"/>
</filter>
<filter id="filter4_f_202_1691" x="5.41052" y="40.4668" width="64.4425" height="314.827" filterUnits="userSpaceOnUse" color-interpolation-filters="sRGB">
<feFlood flood-opacity="0" result="BackgroundImageFix"/>
<feBlend mode="normal" in="SourceGraphic" in2="BackgroundImageFix" result="shape"/>
<feGaussianBlur stdDeviation="5" result="effect1_foregroundBlur_202_1691"/>
</filter>
<filter id="filter5_f_202_1691" x="61.8595" y="40.6267" width="58.4377" height="313.169" filterUnits="userSpaceOnUse" color-interpolation-filters="sRGB">
<feFlood flood-opacity="0" result="BackgroundImageFix"/>
<feBlend mode="normal" in="SourceGraphic" in2="BackgroundImageFix" result="shape"/>
<feGaussianBlur stdDeviation="5" result="effect1_foregroundBlur_202_1691"/>
</filter>
<filter id="filter6_f_202_1691" x="28" y="315" width="64" height="19" filterUnits="userSpaceOnUse" color-interpolation-filters="sRGB">
<feFlood flood-opacity="0" result="BackgroundImageFix"/>
<feBlend mode="normal" in="SourceGraphic" in2="BackgroundImageFix" result="shape"/>
<feGaussianBlur stdDeviation="2.5" result="effect1_foregroundBlur_202_1691"/>
</filter>
<filter id="filter7_f_202_1691" x="145" y="331.356" width="96.1506" height="27.1632" filterUnits="userSpaceOnUse" color-interpolation-filters="sRGB">
<feFlood flood-opacity="0" result="BackgroundImageFix"/>
<feBlend mode="normal" in="SourceGraphic" in2="BackgroundImageFix" result="shape"/>
<feGaussianBlur stdDeviation="2" result="effect1_foregroundBlur_202_1691"/>
</filter>
<filter id="filter8_f_202_1691" x="150.833" y="124.477" width="84.4854" height="26.9958" filterUnits="userSpaceOnUse" color-interpolation-filters="sRGB">
<feFlood flood-opacity="0" result="BackgroundImageFix"/>
<feBlend mode="normal" in="SourceGraphic" in2="BackgroundImageFix" result="shape"/>
<feGaussianBlur stdDeviation="1" result="effect1_foregroundBlur_202_1691"/>
</filter>
<filter id="filter9_f_202_1691" x="166.996" y="109.979" width="50.2427" height="23.4142" filterUnits="userSpaceOnUse" color-interpolation-filters="sRGB">
<feFlood flood-opacity="0" result="BackgroundImageFix"/>
<feBlend mode="normal" in="SourceGraphic" in2="BackgroundImageFix" result="shape"/>
<feGaussianBlur stdDeviation="2.5" result="effect1_foregroundBlur_202_1691"/>
</filter>
<filter id="filter10_f_202_1691" x="157.414" y="146.389" width="23.4142" height="190.134" filterUnits="userSpaceOnUse" color-interpolation-filters="sRGB">
<feFlood flood-opacity="0" result="BackgroundImageFix"/>
<feBlend mode="normal" in="SourceGraphic" in2="BackgroundImageFix" result="shape"/>
<feGaussianBlur stdDeviation="2.5" result="effect1_foregroundBlur_202_1691"/>
</filter>
<filter id="filter11_f_202_1691" x="174.743" y="4.66357" width="18.6389" height="110.875" filterUnits="userSpaceOnUse" color-interpolation-filters="sRGB">
<feFlood flood-opacity="0" result="BackgroundImageFix"/>
<feBlend mode="normal" in="SourceGraphic" in2="BackgroundImageFix" result="shape"/>
<feGaussianBlur stdDeviation="2.5" result="effect1_foregroundBlur_202_1691"/>
</filter>
<filter id="filter12_f_202_1691" x="176.73" y="90.968" width="8.91638" height="17.0371" filterUnits="userSpaceOnUse" color-interpolation-filters="sRGB">
<feFlood flood-opacity="0" result="BackgroundImageFix"/>
<feBlend mode="normal" in="SourceGraphic" in2="BackgroundImageFix" result="shape"/>
<feGaussianBlur stdDeviation="1.5" result="effect1_foregroundBlur_202_1691"/>
</filter>
<filter id="filter13_f_202_1691" x="180.562" y="18.1479" width="8.91638" height="17.0371" filterUnits="userSpaceOnUse" color-interpolation-filters="sRGB">
<feFlood flood-opacity="0" result="BackgroundImageFix"/>
<feBlend mode="normal" in="SourceGraphic" in2="BackgroundImageFix" result="shape"/>
<feGaussianBlur stdDeviation="1.5" result="effect1_foregroundBlur_202_1691"/>
</filter>
<filter id="filter14_f_202_1691" x="194.127" y="18.0897" width="11.4362" height="13.7527" filterUnits="userSpaceOnUse" color-interpolation-filters="sRGB">
<feFlood flood-opacity="0" result="BackgroundImageFix"/>
<feBlend mode="normal" in="SourceGraphic" in2="BackgroundImageFix" result="shape"/>
<feGaussianBlur stdDeviation="1.5" result="effect1_foregroundBlur_202_1691"/>
</filter>
<filter id="filter15_f_202_1691" x="182.479" y="-1.01514" width="8.91638" height="17.0371" filterUnits="userSpaceOnUse" color-interpolation-filters="sRGB">
<feFlood flood-opacity="0" result="BackgroundImageFix"/>
<feBlend mode="normal" in="SourceGraphic" in2="BackgroundImageFix" result="shape"/>
<feGaussianBlur stdDeviation="1.5" result="effect1_foregroundBlur_202_1691"/>
</filter>
<filter id="filter16_f_202_1691" x="195.625" y="-0.991089" width="9.45129" height="16.9891" filterUnits="userSpaceOnUse" color-interpolation-filters="sRGB">
<feFlood flood-opacity="0" result="BackgroundImageFix"/>
<feBlend mode="normal" in="SourceGraphic" in2="BackgroundImageFix" result="shape"/>
<feGaussianBlur stdDeviation="1.5" result="effect1_foregroundBlur_202_1691"/>
</filter>
<filter id="filter17_f_202_1691" x="193.29" y="4.60461" width="16.0393" height="110.993" filterUnits="userSpaceOnUse" color-interpolation-filters="sRGB">
<feFlood flood-opacity="0" result="BackgroundImageFix"/>
<feBlend mode="normal" in="SourceGraphic" in2="BackgroundImageFix" result="shape"/>
<feGaussianBlur stdDeviation="2.5" result="effect1_foregroundBlur_202_1691"/>
</filter>
<filter id="filter18_f_202_1691" x="201.49" y="134.891" width="29.1632" height="201.632" filterUnits="userSpaceOnUse" color-interpolation-filters="sRGB">
<feFlood flood-opacity="0" result="BackgroundImageFix"/>
<feBlend mode="normal" in="SourceGraphic" in2="BackgroundImageFix" result="shape"/>
<feGaussianBlur stdDeviation="2.5" result="effect1_foregroundBlur_202_1691"/>
</filter>
<filter id="filter19_f_202_1691" x="211.071" y="134.891" width="15.7489" height="201.632" filterUnits="userSpaceOnUse" color-interpolation-filters="sRGB">
<feFlood flood-opacity="0" result="BackgroundImageFix"/>
<feBlend mode="normal" in="SourceGraphic" in2="BackgroundImageFix" result="shape"/>
<feGaussianBlur stdDeviation="2.5" result="effect1_foregroundBlur_202_1691"/>
</filter>
<filter id="filter20_f_202_1691" x="157.236" y="121.967" width="30.2925" height="36.6439" filterUnits="userSpaceOnUse" color-interpolation-filters="sRGB">
<feFlood flood-opacity="0" result="BackgroundImageFix"/>
<feBlend mode="normal" in="SourceGraphic" in2="BackgroundImageFix" result="shape"/>
<feGaussianBlur stdDeviation="2.5" result="effect1_foregroundBlur_202_1691"/>
</filter>
<filter id="filter21_f_202_1691" x="201.979" y="121.967" width="30.2925" height="36.6439" filterUnits="userSpaceOnUse" color-interpolation-filters="sRGB">
<feFlood flood-opacity="0" result="BackgroundImageFix"/>
<feBlend mode="normal" in="SourceGraphic" in2="BackgroundImageFix" result="shape"/>
<feGaussianBlur stdDeviation="2.5" result="effect1_foregroundBlur_202_1691"/>
</filter>
<filter id="filter22_f_202_1691" x="157.904" y="131.549" width="25.3779" height="26.4586" filterUnits="userSpaceOnUse" color-interpolation-filters="sRGB">
<feFlood flood-opacity="0" result="BackgroundImageFix"/>
<feBlend mode="normal" in="SourceGraphic" in2="BackgroundImageFix" result="shape"/>
<feGaussianBlur stdDeviation="2.5" result="effect1_foregroundBlur_202_1691"/>
</filter>
<filter id="filter23_f_202_1691" x="178.984" y="131.549" width="25.3779" height="26.4586" filterUnits="userSpaceOnUse" color-interpolation-filters="sRGB">
<feFlood flood-opacity="0" result="BackgroundImageFix"/>
<feBlend mode="normal" in="SourceGraphic" in2="BackgroundImageFix" result="shape"/>
<feGaussianBlur stdDeviation="2.5" result="effect1_foregroundBlur_202_1691"/>
</filter>
<filter id="filter24_f_202_1691" x="206.226" y="131.549" width="25.3779" height="26.4586" filterUnits="userSpaceOnUse" color-interpolation-filters="sRGB">
<feFlood flood-opacity="0" result="BackgroundImageFix"/>
<feBlend mode="normal" in="SourceGraphic" in2="BackgroundImageFix" result="shape"/>
<feGaussianBlur stdDeviation="2.5" result="effect1_foregroundBlur_202_1691"/>
</filter>
<filter id="filter25_f_202_1691" x="174.151" y="11.0607" width="38" height="8" filterUnits="userSpaceOnUse" color-interpolation-filters="sRGB">
<feFlood flood-opacity="0" result="BackgroundImageFix"/>
<feBlend mode="normal" in="SourceGraphic" in2="BackgroundImageFix" result="shape"/>
<feGaussianBlur stdDeviation="1" result="effect1_foregroundBlur_202_1691"/>
</filter>
<linearGradient id="paint0_linear_202_1691" x1="29" y1="360.845" x2="94.7218" y2="365.236" gradientUnits="userSpaceOnUse">
<stop stop-color="#D0A48F"/>
<stop offset="0.321486" stop-color="#F9AA01"/>
<stop offset="0.774638" stop-color="#FDCE08"/>
<stop offset="1" stop-color="#FCD359"/>
</linearGradient>
<linearGradient id="paint1_linear_202_1691" x1="33.5" y1="352.109" x2="88.5" y2="352.109" gradientUnits="userSpaceOnUse">
<stop stop-color="white"/>
<stop offset="0.72776" stop-color="#E3DDCA"/>
<stop offset="1" stop-color="#C4C4C4"/>
</linearGradient>
<linearGradient id="paint2_linear_202_1691" x1="27.7165" y1="332.668" x2="97.9427" y2="344.118" gradientUnits="userSpaceOnUse">
<stop stop-color="white" stop-opacity="0.43"/>
<stop offset="0.07668" stop-color="#DFDFDF" stop-opacity="0.18"/>
<stop offset="0.170436" stop-color="white"/>
<stop offset="0.748595" stop-color="#DFDFDF" stop-opacity="0.38"/>
<stop offset="0.910063" stop-color="white"/>
<stop offset="1" stop-color="#DFDFDF" stop-opacity="0.38"/>
</linearGradient>
<linearGradient id="paint3_linear_202_1691" x1="59.7763" y1="51" x2="59.7763" y2="360.626" gradientUnits="userSpaceOnUse">
<stop stop-color="white"/>
<stop offset="1" stop-color="white" stop-opacity="0"/>
</linearGradient>
<linearGradient id="paint4_linear_202_1691" x1="37.6398" y1="51" x2="37.6398" y2="340.302" gradientUnits="userSpaceOnUse">
<stop offset="0.701717" stop-color="white"/>
<stop offset="1" stop-color="white" stop-opacity="0"/>
</linearGradient>
<linearGradient id="paint5_linear_202_1691" x1="91.0728" y1="51" x2="91.0728" y2="340.302" gradientUnits="userSpaceOnUse">
<stop stop-color="white"/>
<stop offset="1" stop-color="white" stop-opacity="0"/>
</linearGradient>
<linearGradient id="paint6_linear_202_1691" x1="149" y1="138.933" x2="235.234" y2="138.933" gradientUnits="userSpaceOnUse">
<stop stop-color="#321D16"/>
<stop offset="0.15481" stop-color="#A24510"/>
<stop offset="0.488163" stop-color="#BC4604"/>
<stop offset="0.649631" stop-color="#C94E06"/>
<stop offset="0.936106" stop-color="#995122"/>
<stop offset="1" stop-color="#321D16"/>
</linearGradient>
<linearGradient id="paint7_linear_202_1691" x1="173.912" y1="114.979" x2="213.197" y2="114.979" gradientUnits="userSpaceOnUse">
<stop stop-color="#1C0D0E"/>
<stop offset="0.243356" stop-color="#99430E"/>
<stop offset="0.503789" stop-color="#B64403"/>
<stop offset="0.764221" stop-color="#A8440D"/>
<stop offset="1" stop-color="#161616"/>
</linearGradient>
<linearGradient id="paint8_linear_202_1691" x1="149" y1="226.762" x2="235.234" y2="226.762" gradientUnits="userSpaceOnUse">
<stop stop-color="#321D16"/>
<stop offset="0.15481" stop-color="#A24510"/>
<stop offset="0.488163" stop-color="#BC4604"/>
<stop offset="0.649631" stop-color="#C94E06"/>
<stop offset="0.936106" stop-color="#995122"/>
<stop offset="1" stop-color="#321D16"/>
</linearGradient>
<linearGradient id="paint9_linear_202_1691" x1="193.075" y1="335.356" x2="193.075" y2="354.519" gradientUnits="userSpaceOnUse">
<stop stop-color="#361807"/>
<stop offset="1" stop-color="#424242"/>
</linearGradient>
<linearGradient id="paint10_linear_202_1691" x1="193.075" y1="126.477" x2="193.075" y2="149.473" gradientUnits="userSpaceOnUse">
<stop stop-color="#BC4604" stop-opacity="0"/>
<stop offset="1" stop-color="#BC4604"/>
</linearGradient>
<linearGradient id="paint11_linear_202_1691" x1="149.151" y1="229.709" x2="236.078" y2="229.709" gradientUnits="userSpaceOnUse">
<stop offset="0.0271" stop-color="#AE6810"/>
<stop offset="0.0818886" stop-color="#D19730"/>
<stop offset="0.238148" stop-color="#FFE293"/>
<stop offset="0.49858" stop-color="#E2A729"/>
<stop offset="0.785055" stop-color="#FFD669"/>
<stop offset="0.941314" stop-color="#AE6810"/>
<stop offset="1" stop-color="#864E01"/>
</linearGradient>
<linearGradient id="paint12_linear_202_1691" x1="150.565" y1="207.238" x2="235.956" y2="207.238" gradientUnits="userSpaceOnUse">
<stop stop-color="#400000"/>
<stop offset="0.023" stop-color="#530000"/>
<stop offset="0.1136" stop-color="#9B0000"/>
<stop offset="0.1787" stop-color="#C80000"/>
<stop offset="0.2115" stop-color="#D90000"/>
<stop offset="0.3532" stop-color="#400000"/>
<stop offset="0.5437" stop-color="#400000"/>
<stop offset="0.6189" stop-color="#6C0000"/>
<stop offset="0.7041" stop-color="#990000"/>
<stop offset="0.7472" stop-color="#AA0000"/>
<stop offset="1" stop-color="#400000"/>
</linearGradient>
<linearGradient id="paint13_linear_202_1691" x1="149.758" y1="246.027" x2="235.776" y2="246.027" gradientUnits="userSpaceOnUse">
<stop stop-color="#400000"/>
<stop offset="0.023" stop-color="#530000"/>
<stop offset="0.1136" stop-color="#9B0000"/>
<stop offset="0.1787" stop-color="#C80000"/>
<stop offset="0.2115" stop-color="#D90000"/>
<stop offset="0.3532" stop-color="#400000"/>
<stop offset="0.5437" stop-color="#400000"/>
<stop offset="0.6189" stop-color="#6C0000"/>
<stop offset="0.7041" stop-color="#990000"/>
<stop offset="0.7472" stop-color="#AA0000"/>
<stop offset="1" stop-color="#400000"/>
</linearGradient>
<linearGradient id="paint14_linear_202_1691" x1="151.085" y1="167.958" x2="236.111" y2="167.958" gradientUnits="userSpaceOnUse">
<stop stop-color="#400000"/>
<stop offset="0.023" stop-color="#530000"/>
<stop offset="0.1136" stop-color="#9B0000"/>
<stop offset="0.1787" stop-color="#C80000"/>
<stop offset="0.2115" stop-color="#D90000"/>
<stop offset="0.3532" stop-color="#400000"/>
<stop offset="0.5437" stop-color="#400000"/>
<stop offset="0.6189" stop-color="#6C0000"/>
<stop offset="0.7041" stop-color="#990000"/>
<stop offset="0.7472" stop-color="#AA0000"/>
<stop offset="1" stop-color="#400000"/>
</linearGradient>
<linearGradient id="paint15_linear_202_1691" x1="149.151" y1="278.054" x2="235.681" y2="278.054" gradientUnits="userSpaceOnUse">
<stop stop-color="#400000"/>
<stop offset="0.0271" stop-color="#530000"/>
<stop offset="0.1339" stop-color="#9B0000"/>
<stop offset="0.2107" stop-color="#C80000"/>
<stop offset="0.2493" stop-color="#D90000"/>
<stop offset="0.418" stop-color="#400000"/>
<stop offset="0.5437" stop-color="#400000"/>
<stop offset="0.6189" stop-color="#6C0000"/>
<stop offset="0.7041" stop-color="#990000"/>
<stop offset="0.7472" stop-color="#AA0000"/>
<stop offset="1" stop-color="#400000"/>
</linearGradient>
<clipPath id="clip0_202_1691">
<rect width="88" height="125" fill="white" transform="translate(149.151 157.061)"/>
</clipPath>
</defs>
</svg>
